<svg width="20" height="20" viewBox="0 0 20 20" fill="none" xmlns="http://www.w3.org/2000/svg">
<path fill-rule="evenodd" clip-rule="evenodd" d="M9.75 1.5C6.509 1.5 3.994 3.53 3.565 6H5.75C5.94891 6 6.13968 6.07902 6.28033 6.21967C6.42098 6.36032 6.5 6.55109 6.5 6.75V13.75C6.5 13.9489 6.42098 14.1397 6.28033 14.2803C6.13968 14.421 5.94891 14.5 5.75 14.5H2.75C2.02065 14.5 1.32118 14.2103 0.805456 13.6945C0.289731 13.1788 6.04258e-08 12.4793 6.04258e-08 11.75V8.75C-0.0001267 8.14511 0.199189 7.55705 0.56708 7.07689C0.934971 6.59674 1.45091 6.25127 2.035 6.094C2.417 2.59 5.824 0 9.75 0C13.676 0 17.083 2.59 17.465 6.094C18.0491 6.25127 18.565 6.59674 18.9329 7.07689C19.3008 7.55705 19.5001 8.14511 19.5 8.75V11.75C19.5002 12.3567 19.2997 12.9465 18.9299 13.4274C18.56 13.9083 18.0414 14.2535 17.455 14.409C17.296 15.5437 16.7323 16.5827 15.8677 17.3345C15.003 18.0863 13.8958 18.5002 12.75 18.5H11.605C11.4309 18.9303 11.1127 19.2866 10.7047 19.5079C10.2967 19.7293 9.8245 19.8018 9.36892 19.7132C8.91333 19.6245 8.50276 19.3802 8.20757 19.022C7.91238 18.6638 7.75095 18.2141 7.75095 17.75C7.75095 17.2859 7.91238 16.8362 8.20757 16.478C8.50276 16.1198 8.91333 15.8755 9.36892 15.7868C9.8245 15.6982 10.2967 15.7707 10.7047 15.9921C11.1127 16.2134 11.4309 16.5697 11.605 17H12.75C13.4817 17.0002 14.192 16.7534 14.766 16.2997C15.34 15.846 15.7442 15.2119 15.913 14.5H13.75C13.5511 14.5 13.3603 14.421 13.2197 14.2803C13.079 14.1397 13 13.9489 13 13.75V6.75C13 6.55109 13.079 6.36032 13.2197 6.21967C13.3603 6.07902 13.5511 6 13.75 6H15.935C15.506 3.53 12.991 1.5 9.75 1.5ZM2.75 7.5C2.06 7.5 1.5 8.06 1.5 8.75V11.75C1.5 12.44 2.06 13 2.75 13H5V7.5H2.75ZM18 8.75C18 8.06 17.44 7.5 16.75 7.5H14.5V13H16.75C17.44 13 18 12.44 18 11.75V8.75Z" fill="#444444"/>
</svg>
