<svg width="20" height="21" viewBox="0 0 20 21" fill="none" xmlns="http://www.w3.org/2000/svg">
<path d="M11.3248 20.9361H8.12994C7.59631 20.9361 7.16221 20.502 7.16221 19.9684V12.7623H5.29829C4.76466 12.7623 4.33057 12.3281 4.33057 11.7946V8.70676C4.33057 8.17312 4.76466 7.73903 5.29829 7.73903H7.16221V6.19276C7.16221 4.65959 7.64364 3.35518 8.55429 2.42078C9.46906 1.48212 10.7474 0.986084 12.2512 0.986084L14.6878 0.990041C15.2205 0.990955 15.6538 1.42505 15.6538 1.95777V4.82473C15.6538 5.35837 15.2199 5.79246 14.6864 5.79246L13.0459 5.79307C12.5456 5.79307 12.4182 5.89337 12.391 5.92412C12.3461 5.97511 12.2926 6.11925 12.2926 6.51727V7.73887H14.5631C14.734 7.73887 14.8996 7.78104 15.0419 7.86049C15.3489 8.03202 15.5398 8.35638 15.5398 8.70691L15.5386 11.7947C15.5386 12.3281 15.1045 12.7621 14.5709 12.7621H12.2926V19.9684C12.2926 20.502 11.8584 20.9361 11.3248 20.9361ZM8.33177 19.7665H11.1229V12.2387C11.1229 11.8824 11.4129 11.5926 11.769 11.5926H14.369L14.3701 8.90858H11.7689C11.4127 8.90858 11.1229 8.61878 11.1229 8.26247V6.51727C11.1229 6.06034 11.1694 5.54071 11.5143 5.15015C11.931 4.678 12.5878 4.62351 13.0456 4.62351L14.4843 4.6229V2.15929L12.2503 2.15564C9.83359 2.15564 8.33177 3.70266 8.33177 6.19276V8.26247C8.33177 8.61863 8.04197 8.90858 7.6858 8.90858H5.50012V11.5926H7.6858C8.04197 11.5926 8.33177 11.8824 8.33177 12.2387V19.7665Z" fill="#CF0B10"/>
<path d="M14.6855 2.1596H14.6856M11.3248 20.9361H8.12994C7.59631 20.9361 7.16221 20.502 7.16221 19.9684V12.7623H5.29829C4.76466 12.7623 4.33057 12.3281 4.33057 11.7946V8.70676C4.33057 8.17312 4.76466 7.73903 5.29829 7.73903H7.16221V6.19276C7.16221 4.65959 7.64364 3.35518 8.55429 2.42078C9.46906 1.48212 10.7474 0.986084 12.2512 0.986084L14.6878 0.990041C15.2205 0.990955 15.6538 1.42505 15.6538 1.95777V4.82473C15.6538 5.35837 15.2199 5.79246 14.6864 5.79246L13.0459 5.79307C12.5456 5.79307 12.4182 5.89337 12.391 5.92412C12.3461 5.97511 12.2926 6.11925 12.2926 6.51727V7.73887H14.5631C14.734 7.73887 14.8996 7.78104 15.0419 7.86049C15.3489 8.03202 15.5398 8.35638 15.5398 8.70691L15.5386 11.7947C15.5386 12.3281 15.1045 12.7621 14.5709 12.7621H12.2926V19.9684C12.2926 20.502 11.8584 20.9361 11.3248 20.9361ZM8.33177 19.7665H11.1229V12.2387C11.1229 11.8824 11.4129 11.5926 11.769 11.5926H14.369L14.3701 8.90858H11.7689C11.4127 8.90858 11.1229 8.61878 11.1229 8.26247V6.51727C11.1229 6.06034 11.1694 5.54071 11.5143 5.15015C11.931 4.678 12.5878 4.62351 13.0456 4.62351L14.4843 4.6229V2.15929L12.2503 2.15564C9.83359 2.15564 8.33177 3.70266 8.33177 6.19276V8.26247C8.33177 8.61863 8.04197 8.90858 7.6858 8.90858H5.50012V11.5926H7.6858C8.04197 11.5926 8.33177 11.8824 8.33177 12.2387V19.7665Z" stroke="#CF0B10" stroke-width="0.09975"/>
</svg>
