<svg width="20" height="20" viewBox="0 0 20 20" fill="none" xmlns="http://www.w3.org/2000/svg">
<g clip-path="url(#clip0_2984_7918)">
<path d="M10.187 19.4999C10.1241 19.4999 10.0612 19.4999 9.99782 19.4997C8.50852 19.5033 7.13243 19.4654 5.79417 19.384C4.56724 19.3093 3.4473 18.8853 2.55522 18.1579C1.69446 17.456 1.10665 16.507 0.808182 15.3375C0.548416 14.3193 0.534645 13.3198 0.521454 12.3531C0.511887 11.6594 0.502029 10.8375 0.5 10.0017C0.502029 9.16238 0.511887 8.34046 0.521454 7.64683C0.534645 6.68025 0.548416 5.68076 0.808182 4.66243C1.10665 3.4929 1.69446 2.54386 2.55522 1.84197C3.4473 1.11457 4.56724 0.690567 5.79432 0.615913C7.13257 0.534592 8.50896 0.496613 10.0014 0.500237C11.4912 0.497048 12.8668 0.534592 14.2051 0.615913C15.432 0.690567 16.552 1.11457 17.444 1.84197C18.305 2.54386 18.8926 3.4929 19.1911 4.66243C19.4509 5.68062 19.4646 6.68025 19.4778 7.64683C19.4874 8.34046 19.4974 9.16238 19.4993 9.99821V10.0017C19.4974 10.8375 19.4874 11.6594 19.4778 12.3531C19.4646 13.3196 19.451 14.3191 19.1911 15.3375C18.8926 16.507 18.305 17.456 17.444 18.1579C16.552 18.8853 15.432 19.3093 14.2051 19.384C12.9235 19.462 11.607 19.4999 10.187 19.4999ZM9.99782 18.0153C11.4629 18.0188 12.8081 17.9818 14.1149 17.9024C15.0427 17.846 15.847 17.5449 16.506 17.0075C17.1151 16.5108 17.5346 15.8254 17.7528 14.9704C17.9691 14.1229 17.9816 13.2128 17.9936 12.3328C18.003 11.6438 18.0129 10.8277 18.0149 9.99995C18.0129 9.17209 18.003 8.35612 17.9936 7.66713C17.9816 6.78709 17.9691 5.87704 17.7528 5.02932C17.5346 4.17435 17.1151 3.48899 16.506 2.99222C15.847 2.455 15.0427 2.15392 14.1149 2.09753C12.8081 2.01795 11.4629 1.98128 10.0013 1.98447C8.5365 1.98099 7.19114 2.01795 5.88434 2.09753C4.9566 2.15392 4.15223 2.455 3.49325 2.99222C2.88413 3.48899 2.46462 4.17435 2.24646 5.02932C2.03018 5.87704 2.01772 6.78694 2.00568 7.66713C1.99626 8.3567 1.9864 9.17325 1.98437 10.0017C1.9864 10.8265 1.99626 11.6432 2.00568 12.3328C2.01772 13.2128 2.03018 14.1229 2.24646 14.9704C2.46462 15.8254 2.88413 16.5108 3.49325 17.0075C4.15223 17.5447 4.9566 17.8458 5.88434 17.9022C7.19114 17.9818 8.53679 18.0189 9.99782 18.0153ZM9.96245 14.6386C7.40481 14.6386 5.32378 12.5577 5.32378 9.99995C5.32378 7.44215 7.40481 5.36127 9.96245 5.36127C12.5202 5.36127 14.6011 7.44215 14.6011 9.99995C14.6011 12.5577 12.5202 14.6386 9.96245 14.6386ZM9.96245 6.84565C8.22324 6.84565 6.80816 8.26073 6.80816 9.99995C6.80816 11.7392 8.22324 13.1542 9.96245 13.1542C11.7018 13.1542 13.1167 11.7392 13.1167 9.99995C13.1167 8.26073 11.7018 6.84565 9.96245 6.84565ZM15.1207 3.8769C14.5059 3.8769 14.0074 4.37527 14.0074 4.99018C14.0074 5.60509 14.5059 6.10346 15.1207 6.10346C15.7356 6.10346 16.2339 5.60509 16.2339 4.99018C16.2339 4.37527 15.7356 3.8769 15.1207 3.8769Z" fill="#CF0B10"/>
</g>
<defs>
<clipPath id="clip0_2984_7918">
<rect width="19" height="19" fill="white" transform="translate(0.5 0.5)"/>
</clipPath>
</defs>
</svg>
