<svg width="20" height="20" viewBox="0 0 20 20" fill="none" xmlns="http://www.w3.org/2000/svg">
<path d="M10 0.125C15.454 0.125 19.875 4.54604 19.875 10C19.8776 11.9606 19.2939 13.8773 18.1992 15.5039V15.5049C18.0861 15.6739 17.9674 15.8389 17.8438 16L17.8057 16.0498L17.8086 16.0635L17.498 16.4258C16.9432 17.0739 16.3067 17.6473 15.6045 18.1318H15.6035C14.1349 19.1468 12.4174 19.7431 10.6357 19.8555C10.4252 19.8686 10.2133 19.875 10 19.875L9.4668 19.8613C8.22496 19.7952 7.00477 19.4937 5.87207 18.9727C4.73951 18.4516 3.71755 17.7212 2.85938 16.8213L2.50195 16.4258L2.19043 16.0635L2.19434 16.0498L2.15625 16C0.836069 14.2788 0.121888 12.1692 0.125 10C0.125 4.54604 4.54604 0.125006 10 0.125ZM10 1.875C8.57891 1.87475 7.18235 2.24705 5.9502 2.95508C4.71808 3.66311 3.69287 4.68227 2.97754 5.91016C2.2623 7.13801 1.88222 8.53216 1.87402 9.95312C1.86582 11.3742 2.2305 12.7727 2.93164 14.0088L3.02441 14.1729L3.13867 14.0234C3.59359 13.4322 4.17918 12.9532 4.84863 12.624C5.43431 12.3361 6.07102 12.1695 6.7207 12.1328L7 12.125H13C13.7459 12.1242 14.482 12.295 15.1514 12.624C15.8208 12.9532 16.4064 13.4322 16.8613 14.0234L16.9756 14.1729L17.0684 14.0088C17.7695 12.7727 18.1342 11.3742 18.126 9.95312C18.1178 8.53216 17.7377 7.13801 17.0225 5.91016C16.3071 4.68226 15.2819 3.66311 14.0498 2.95508C12.8948 2.29138 11.5953 1.92228 10.2666 1.87891L10 1.875ZM10 4.125C10.7625 4.125 11.494 4.42763 12.0332 4.9668C12.5724 5.50596 12.875 6.2375 12.875 7C12.875 7.7625 12.5724 8.49404 12.0332 9.0332C11.494 9.57237 10.7625 9.875 10 9.875C9.23751 9.875 8.50596 9.57237 7.9668 9.0332C7.42763 8.49404 7.125 7.7625 7.125 7C7.125 6.2375 7.42763 5.50596 7.9668 4.9668C8.50596 4.42763 9.23751 4.125 10 4.125Z" fill="#444444" stroke="white" stroke-width="0.25"/>
</svg>
