<svg width="24" height="24" viewBox="0 0 24 24" fill="none" xmlns="http://www.w3.org/2000/svg">
<path d="M11.625 2C16.0773 2 19.8186 5.02491 20.9219 9.12598C20.93 9.15616 20.9239 9.18354 20.9053 9.20703C20.8855 9.23181 20.8529 9.25 20.8125 9.25H19.7422C19.6891 9.24994 19.6296 9.21249 19.6074 9.1416C19.2611 8.02625 18.6847 6.99379 17.9141 6.1123C17.2442 5.34619 16.4417 4.71077 15.5479 4.23438L15.1592 4.04004L15.0771 4.00684C14.6629 3.87564 14.25 4.19874 14.25 4.625C14.25 5.51789 13.5179 6.25 12.625 6.25H11.125C10.6418 6.25 10.25 6.64175 10.25 7.125V8.625C10.25 8.96789 9.96789 9.25 9.625 9.25H8.125C7.64175 9.25 7.25 9.64175 7.25 10.125V11.125C7.25 11.6082 7.64175 12 8.125 12H9.125C9.19404 12 9.25 12.056 9.25 12.125V14.125C9.25 14.194 9.19404 14.25 9.125 14.25H8.83203C8.79912 14.25 8.76752 14.237 8.74414 14.2139L4.74316 10.2129C4.27069 9.74042 3.39539 9.94554 3.30664 10.6855C3.26991 10.9919 3.25 11.3043 3.25 11.625C3.25 16.0665 6.72717 19.712 11.1016 19.9834C11.1947 19.9892 11.25 20.0619 11.25 20.125V21.125C11.25 21.1991 11.1932 21.2407 11.1436 21.2383C6.05418 20.9873 2 16.7764 2 11.625C2 6.31211 6.31211 2 11.625 2Z" fill="#666666"/>
<path fill-rule="evenodd" clip-rule="evenodd" d="M15.125 10C17.4179 10 19.25 11.8321 19.25 14.125C19.25 14.8116 19.0576 15.4422 18.7695 16.0215C18.6033 16.3559 18.6473 16.7782 18.9297 17.0605L21.5059 19.6367C21.5547 19.6855 21.5547 19.7647 21.5059 19.8135L20.8135 20.5059C20.7647 20.5547 20.6855 20.5547 20.6367 20.5059L18.0605 17.9297C17.7782 17.6473 17.3559 17.6033 17.0215 17.7695C16.4422 18.0576 15.8116 18.25 15.125 18.25C12.8321 18.25 11 16.4179 11 14.125C11 11.8321 12.8321 10 15.125 10ZM15.125 11.25C13.5179 11.25 12.25 12.5179 12.25 14.125C12.25 15.7321 13.5179 17 15.125 17C16.7321 17 18 15.7321 18 14.125C18 12.5179 16.7321 11.25 15.125 11.25Z" fill="#666666"/>
</svg>
