<svg width="21" height="21" viewBox="0 0 21 21" fill="none" xmlns="http://www.w3.org/2000/svg">
<path fill-rule="evenodd" clip-rule="evenodd" d="M6.55774 13.9134C10.4027 17.7584 13.9657 18.1794 15.0117 18.2184C16.2757 18.2644 17.5657 17.2324 18.1237 16.1754C17.2337 15.1314 16.0747 14.3214 14.8057 13.4434C14.0567 14.1914 13.1337 15.5814 11.9047 15.0834C11.2057 14.8024 9.47974 14.0074 7.97174 12.4984C6.46374 10.9894 5.66874 9.26444 5.38574 8.56644C4.88774 7.33544 6.28174 6.41044 7.03074 5.66144C6.15274 4.37144 5.35674 3.18244 4.31474 2.33744C3.24274 2.89744 2.20474 4.17744 2.25174 5.45844C2.29074 6.50444 2.71174 10.0674 6.55774 13.9134ZM14.9377 20.2174C13.4977 20.1644 9.41674 19.6004 5.14274 15.3274C0.869742 11.0534 0.306742 6.97344 0.252742 5.53244C0.172742 3.33644 1.85474 1.20344 3.79774 0.370444C4.03172 0.269411 4.28794 0.230945 4.54127 0.25882C4.7946 0.286695 5.03633 0.379953 5.24274 0.529444C6.85074 1.70244 7.95974 3.47944 8.91274 4.87144C9.11099 5.1609 9.20181 5.51055 9.16949 5.85989C9.13717 6.20923 8.98373 6.53628 8.73574 6.78444L7.37974 8.14144C7.69474 8.83644 8.33574 10.0344 9.38574 11.0844C10.4357 12.1344 11.6337 12.7754 12.3297 13.0904L13.6847 11.7344C13.9336 11.4854 14.262 11.3318 14.6127 11.3005C14.9633 11.2693 15.3138 11.3623 15.6027 11.5634C17.0227 12.5474 18.6907 13.6404 19.9067 15.1974C20.0684 15.4053 20.1712 15.6529 20.2044 15.9141C20.2377 16.1753 20.2001 16.4407 20.0957 16.6824C19.2587 18.6354 17.1407 20.2984 14.9377 20.2174Z" fill="#444444" stroke="white" stroke-width="0.5"/>
</svg>
