<svg width="18" height="18" viewBox="0 0 18 18" fill="none" xmlns="http://www.w3.org/2000/svg">
<path fill-rule="evenodd" clip-rule="evenodd" d="M1.125 2.25C1.125 1.95163 1.24353 1.66548 1.4545 1.4545C1.66548 1.24353 1.95163 1.125 2.25 1.125C2.54837 1.125 2.83452 1.24353 3.0455 1.4545C3.25647 1.66548 3.375 1.95163 3.375 2.25H1.125ZM3.375 15.75V3.375H0.5625C0.413316 3.375 0.270242 3.31574 0.164752 3.21025C0.0592632 3.10476 0 2.96168 0 2.8125V2.25C0 1.0125 1.00688 0 2.25 0H11.8125C12.5584 0 13.2738 0.296316 13.8012 0.823762C14.3287 1.35121 14.625 2.06658 14.625 2.8125V14.625H17.4375C17.5867 14.625 17.7298 14.6843 17.8352 14.7898C17.9407 14.8952 18 15.0383 18 15.1875C18 15.9334 17.7037 16.6488 17.1762 17.1762C16.6488 17.7037 15.9334 18 15.1875 18H5.625C4.3875 18 3.375 16.9931 3.375 15.75ZM13.5 14.625V2.8125C13.5 2.36495 13.3222 1.93572 13.0057 1.61926C12.6893 1.30279 12.2601 1.125 11.8125 1.125H4.19625C4.3875 1.45575 4.49775 1.8405 4.49775 2.25V15.75C4.49775 16.0484 4.61628 16.3345 4.82725 16.5455C5.03823 16.7565 5.32438 16.875 5.62275 16.875C5.92112 16.875 6.20727 16.7565 6.41825 16.5455C6.62922 16.3345 6.74775 16.0484 6.74775 15.75V15.1875C6.74775 15.0383 6.80701 14.8952 6.9125 14.7898C7.01799 14.6843 7.16107 14.625 7.31025 14.625H13.4978H13.5ZM7.875 15.75C7.875 16.1595 7.76587 16.5443 7.5735 16.875H15.1897C15.9244 16.875 16.551 16.4059 16.776 15.75H7.87725H7.875ZM7.3125 4.5C7.16332 4.5 7.02024 4.55926 6.91475 4.66475C6.80926 4.77024 6.75 4.91332 6.75 5.0625C6.75 5.21168 6.80926 5.35476 6.91475 5.46025C7.02024 5.56574 7.16332 5.625 7.3125 5.625H10.6875C10.8367 5.625 10.9798 5.56574 11.0852 5.46025C11.1907 5.35476 11.25 5.21168 11.25 5.0625C11.25 4.91332 11.1907 4.77024 11.0852 4.66475C10.9798 4.55926 10.8367 4.5 10.6875 4.5H7.3125ZM6.75 7.3125C6.75 7.16332 6.80926 7.02024 6.91475 6.91475C7.02024 6.80926 7.16332 6.75 7.3125 6.75H10.6875C10.8367 6.75 10.9798 6.80926 11.0852 6.91475C11.1907 7.02024 11.25 7.16332 11.25 7.3125C11.25 7.46168 11.1907 7.60476 11.0852 7.71025C10.9798 7.81574 10.8367 7.875 10.6875 7.875H7.3125C7.16332 7.875 7.02024 7.81574 6.91475 7.71025C6.80926 7.60476 6.75 7.46168 6.75 7.3125ZM7.3125 9C7.16332 9 7.02024 9.05926 6.91475 9.16475C6.80926 9.27024 6.75 9.41332 6.75 9.5625C6.75 9.71168 6.80926 9.85476 6.91475 9.96025C7.02024 10.0657 7.16332 10.125 7.3125 10.125H9.5625C9.71168 10.125 9.85476 10.0657 9.96025 9.96025C10.0657 9.85476 10.125 9.71168 10.125 9.5625C10.125 9.41332 10.0657 9.27024 9.96025 9.16475C9.85476 9.05926 9.71168 9 9.5625 9H7.3125Z" fill="#CF0B10"/>
</svg>
