<svg width="20" height="22" viewBox="0 0 20 22" fill="none" xmlns="http://www.w3.org/2000/svg">
<path d="M0.75 9.167C0.75 5.969 0.75 4.37 1.128 3.832C1.505 3.295 3.008 2.78 6.015 1.751L6.588 1.555C8.155 1.018 8.938 0.75 9.75 0.75C10.562 0.75 11.345 1.018 12.912 1.555L13.485 1.751C16.492 2.78 17.995 3.295 18.372 3.832C18.75 4.37 18.75 5.97 18.75 9.167V10.741C18.75 16.379 14.511 19.116 11.851 20.277C11.13 20.592 10.77 20.75 9.75 20.75C8.73 20.75 8.37 20.592 7.649 20.277C4.989 19.115 0.75 16.38 0.75 10.741V9.167Z" stroke="#444444" stroke-width="1.5"/>
</svg>
