<svg width="42" height="36" viewBox="0 0 42 36" fill="none" xmlns="http://www.w3.org/2000/svg">
<path d="M11.2891 7.43779C11.3008 7.42604 11.336 7.43779 11.336 7.43779C11.4065 7.14045 11.965 7.07704 12.2139 6.90653C12.4634 6.73649 12.9655 6.63785 13.2619 6.54531C13.3286 5.74115 13.4949 4.7909 13.7213 4.04545C13.9477 3.3 14.1375 2.53341 14.5301 1.98901C14.5475 1.99934 14.5771 1.98901 14.5771 1.98901C14.6095 1.88097 14.9966 2.37606 15.1079 2.58555C15.2197 2.79458 15.4832 3.13513 15.6223 3.38643C15.7618 3.63726 15.9567 3.94493 16.0948 4.22958C16.2324 4.51376 16.4386 4.76647 16.5462 5.09293C16.6542 5.41892 16.8924 5.6101 16.9689 5.9854C17.0455 6.36024 17.4293 6.39218 17.7243 6.54531C17.7609 6.56457 17.8252 6.57162 17.8652 6.59229C17.8858 6.31891 18.5665 6.24046 18.8084 6.07935C19.0498 5.91823 19.5491 5.79611 19.87 5.68478C20.1908 5.57346 20.7098 5.45133 21.0593 5.37101C21.0593 5.32404 21.0593 5.27706 21.0593 5.23009C20.9428 5.14319 20.9395 5.02717 20.9184 4.90128C20.599 4.90692 20.4496 4.48652 20.202 4.25542C19.955 4.02384 19.7704 3.78616 19.5562 3.58606C19.2828 3.331 19.001 3.06843 18.7576 2.78753C18.6271 2.59824 18.2499 2.3925 18.0883 2.14167C17.9267 1.89036 17.4617 1.80534 17.5833 1.51928C17.0807 1.45446 16.7205 0.976754 16.254 0.687875C15.7876 0.398996 15.3118 0.0650229 14.7758 0.00630763C14.2399 -0.0528774 13.8711 0.312097 13.5555 0.779471C13.2403 1.24731 12.9674 1.68557 12.7344 2.21306C12.5014 2.74056 12.2722 3.25256 12.0867 3.81998C11.9006 4.38694 11.7499 4.96517 11.6169 5.51098C11.4835 6.05633 11.3839 6.8605 11.2891 7.43779Z" fill="#463640" fill-opacity="0.99"/>
<path d="M30.1248 3.53924C29.7058 3.95823 29.2732 4.39085 28.8565 4.80749C28.7302 4.95499 28.5306 5.10483 28.4338 5.27721C28.4051 5.32794 28.3586 5.36364 28.3398 5.41813C29.7302 5.53227 30.991 6.17063 32.1916 6.8273C32.232 6.53513 32.4631 6.25471 32.5636 5.97804C32.6646 5.70184 32.8628 5.44256 32.9793 5.17247C33.0958 4.90238 33.2682 4.59048 33.4246 4.34951C33.581 4.10855 33.7158 3.79524 33.8788 3.58246C34.0418 3.3692 34.1893 3.00564 34.364 2.8464C34.5392 2.68764 34.6717 2.14088 34.916 2.13007C34.9235 2.12961 35.0047 2.17282 35.0099 2.17705C35.2678 2.39265 35.3218 2.81916 35.4693 3.12683C35.6163 3.43496 35.7258 3.81732 35.8451 4.16021C35.9639 4.50311 36.0513 4.90754 36.1363 5.27815C36.2208 5.64923 36.3082 6.07339 36.3618 6.46185C36.4148 6.85032 36.4379 7.42103 36.4191 7.81372C36.4003 8.2064 36.4552 8.79825 36.3251 9.12894C36.195 9.46009 36.2523 9.98477 35.9963 10.2093C36.1466 10.5297 36.4195 10.7965 36.6032 11.1055C36.7869 11.4151 37.0396 11.6955 37.1847 12.0271C37.3303 12.3583 37.6239 12.626 37.746 12.9689C37.8682 13.3118 38.0368 13.6618 38.2392 13.9788C38.4422 14.2954 38.5817 14.6717 38.7818 14.9864C38.9819 15.3006 39.1641 15.5951 39.3675 15.9037C39.5709 16.2124 39.7776 16.4646 40.0242 16.7502C40.2708 17.0358 40.4089 17.2899 40.7288 17.5487C41.0487 17.8071 41.1074 18.0236 41.4803 18.3003C41.8533 18.5769 41.6964 18.9217 41.3042 19.0871C41.5635 19.0913 41.7002 18.8381 41.9148 18.7582C41.843 18.3717 41.2849 18.1049 40.9871 17.7131C40.6893 17.3214 40.1444 17.0029 40.0829 16.5506C39.7832 16.5003 39.6912 16.1452 39.5239 15.9822C39.3567 15.8192 39.0866 15.3462 38.9739 15.1296C38.8612 14.9136 38.523 14.566 38.6268 14.3429C38.3078 14.2184 38.321 13.8722 38.1218 13.6265C37.9231 13.3804 37.7935 13.0281 37.9325 12.7092C38.0716 12.3902 38.0744 12.1018 38.1603 11.7627C38.2468 11.4235 38.2604 11.0492 38.3083 10.6894C38.3562 10.33 38.3858 10.0228 38.3919 9.64563C38.398 9.26845 38.3722 8.87905 38.3449 8.5183C38.3177 8.15755 38.2872 7.73339 38.251 7.39097C38.2148 7.04854 38.1585 6.7606 38.0786 6.43602C37.9983 6.11144 37.9443 5.76385 37.8719 5.46886C37.7996 5.17341 37.7244 4.89345 37.6084 4.60457C37.4924 4.31569 37.4379 3.94367 37.3012 3.69049C37.1641 3.43778 37.126 2.99859 37.0297 3.06952C36.8752 2.48237 36.4252 2.03895 36.3721 1.47246C36.1795 1.53588 36.0611 1.17701 35.9385 1.01354C35.8159 0.850081 35.5661 0.637767 35.6205 0.439074C35.3481 0.440484 35.0555 0.154892 34.729 0.205152C34.403 0.255882 34.1785 0.47994 33.8826 0.439074C33.9554 0.647631 33.799 0.460212 33.6947 0.533019C33.8887 0.61522 33.5176 0.780093 33.4246 0.805927C33.3321 0.831762 33.1902 1.08682 33.084 0.908797C32.9605 1.18358 32.5551 1.51098 32.2385 1.51944C32.2362 1.80221 31.8026 1.95299 31.5927 2.18879C31.3822 2.42459 31.0727 2.63644 30.8435 2.84875C30.6138 3.0606 30.3766 3.32411 30.1248 3.53924Z" fill="#463640" fill-opacity="0.98"/>
<path d="M14.5781 1.98788C14.688 2.03767 14.7087 2.13209 14.766 2.22274C14.7792 2.23355 14.8012 2.2575 14.813 2.26972C15.0478 2.5135 15.1939 2.81224 15.3884 3.10347C15.5833 3.3947 15.751 3.69908 15.9295 4.01849C16.108 4.3379 16.2616 4.58216 16.4063 4.95089C16.5514 5.31962 16.7835 5.48966 16.876 5.93731C16.969 6.38448 17.3171 6.4277 17.7253 6.54419C17.4303 6.39106 17.0465 6.35912 16.97 5.98428C16.8934 5.60897 16.6552 5.4178 16.5472 5.09181C16.4396 4.76535 16.2334 4.51264 16.0958 4.22846C15.9577 3.94381 15.7628 3.63614 15.6233 3.38531C15.4842 3.134 15.2207 2.79346 15.1089 2.58443C14.9976 2.37493 14.6105 1.87985 14.5781 1.98788Z" fill="#000002"/>
<path d="M11.3359 7.43706C11.722 7.19656 12.0264 7.02558 12.4647 6.8748C12.902 6.72355 13.4459 6.61411 13.3924 6.06453C13.3388 5.51496 13.5648 5.06168 13.6371 4.57128C13.7094 4.08089 13.8978 3.67928 14.0284 3.22459C14.159 2.7699 14.3666 2.42371 14.53 1.98828C14.1374 2.53269 13.9476 3.29928 13.7212 4.04473C13.4948 4.79018 13.3285 5.74042 13.2618 6.54459C12.9654 6.63712 12.4633 6.73577 12.2138 6.90581C11.9649 7.07631 11.4064 7.13973 11.3359 7.43706Z" fill="#000002"/>
<path d="M11.336 7.43706C11.336 7.43706 11.3008 7.42532 11.2891 7.43706C11.2891 7.43706 11.2966 7.48122 11.2891 7.48403C11.3731 7.57187 11.7461 7.23696 11.9321 7.18764C12.1186 7.13879 12.4483 6.88796 12.6832 6.85836C12.9181 6.8283 13.237 6.62397 13.4498 6.54459C13.3018 6.4544 13.5033 5.97951 13.4958 5.74512C13.4878 5.51026 13.5682 5.25144 13.6344 4.94424C13.7006 4.63705 13.7044 4.60698 13.8152 4.18564C13.9261 3.7643 14.0989 3.17339 14.2845 2.77601C14.47 2.37909 14.3728 2.42137 14.5771 2.08223C14.6551 2.10759 14.6866 2.20247 14.765 2.22314C14.7077 2.13249 14.687 2.03807 14.5771 1.98828C14.5771 1.98828 14.5475 1.99862 14.5301 1.98828C14.3667 2.42371 14.1591 2.7699 14.0285 3.22459C13.8979 3.67928 13.7095 4.08089 13.6372 4.57129C13.5649 5.06168 13.3389 5.51496 13.3925 6.06453C13.446 6.61411 12.9021 6.72355 12.4648 6.8748C12.0265 7.02558 11.7221 7.19656 11.336 7.43706Z" fill="#463640"/>
<path d="M13.4489 6.54439C13.8153 6.4077 14.3452 6.3457 14.7172 6.30953C14.8886 6.13292 14.7346 5.66742 14.8266 5.43256C14.9187 5.1977 14.8882 4.82521 14.9521 4.57156C15.1771 5.1 15.3814 5.67776 15.4688 6.26256C15.7562 6.27383 16.1071 6.28135 16.4082 6.30953C16.6059 6.32785 16.8136 6.40207 17.0188 6.40348C16.4256 4.97129 15.5693 3.54663 14.8111 2.26992C14.7994 2.25771 14.7773 2.23375 14.7642 2.22295C14.6857 2.20228 14.6543 2.1074 14.5763 2.08203C14.3719 2.42117 14.4692 2.3789 14.2836 2.77581C14.0981 3.1732 13.9252 3.76411 13.8144 4.18545C13.7035 4.60679 13.6998 4.63685 13.6335 4.94405C13.5673 5.25125 13.487 5.51007 13.495 5.74493C13.5025 5.97932 13.301 6.45421 13.4489 6.54439Z" fill="#F3E4B7"/>
<path d="M32.1914 6.82613C32.2041 6.83224 32.2327 6.86089 32.2384 6.8731C32.3774 6.65186 32.422 6.38318 32.5564 6.15772C32.6907 5.93225 32.7555 5.64243 32.9077 5.42871C33.0599 5.21498 33.1243 4.96509 33.261 4.74855C33.3977 4.53201 33.5165 4.27178 33.6616 4.06886C33.8073 3.86594 33.9035 3.61229 34.0586 3.43239C34.214 3.25248 34.3103 2.91569 34.4822 2.77571C34.6542 2.63574 34.7359 2.19326 34.9158 2.12891C34.6715 2.13971 34.5391 2.68647 34.3639 2.84523C34.1891 3.00447 34.0416 3.36803 33.8786 3.58129C33.7157 3.79407 33.5808 4.10738 33.4244 4.34834C33.268 4.58931 33.0956 4.90121 32.9791 5.1713C32.8626 5.44139 32.6644 5.70068 32.5634 5.97687C32.4629 6.25354 32.2318 6.53396 32.1914 6.82613Z" fill="#000002"/>
<path d="M32.2392 6.87311C32.2284 6.89002 32.2392 6.92008 32.2392 6.92008C32.762 7.02577 33.1763 7.56454 33.6343 7.82664C34.0922 8.08875 34.4239 8.57726 34.8344 8.92814C35.2449 9.27949 35.5592 9.76801 35.903 10.1612C35.9246 10.1673 35.95 10.1612 35.95 10.1612C36.2581 9.34056 36.469 8.24751 36.3727 7.34283C36.2764 6.43814 36.222 5.38268 35.9035 4.571C35.585 3.75932 35.4981 2.88094 35.0105 2.17588C35.0054 2.17165 34.9241 2.12844 34.9166 2.12891C34.7367 2.19326 34.655 2.63574 34.483 2.77572C34.3111 2.9157 34.2148 3.25249 34.0594 3.43239C33.9043 3.61229 33.808 3.86594 33.6624 4.06886C33.5173 4.27178 33.3985 4.53201 33.2618 4.74855C33.1251 4.96509 33.0607 5.21499 32.9085 5.42871C32.7563 5.64243 32.6915 5.93225 32.5572 6.15772C32.4228 6.38319 32.3782 6.65187 32.2392 6.87311ZM34.7757 8.752C34.3961 8.44151 34.065 8.04319 33.6483 7.81255C34.072 6.86512 34.4046 5.87166 34.4469 4.80633C34.9312 6.00271 35.0472 7.45227 34.7757 8.752Z" fill="#F3E4B7"/>
<path d="M35.9512 10.1611C35.9634 10.1667 35.9925 10.1958 35.9981 10.208C36.2541 9.98351 36.1968 9.45883 36.3269 9.12767C36.4571 8.79699 36.4021 8.20514 36.4209 7.81245C36.4397 7.41976 36.4167 6.84905 36.3636 6.46059C36.31 6.07213 36.2227 5.64797 36.1381 5.27689C36.0531 4.90628 35.9657 4.50185 35.8469 4.15895C35.7276 3.81605 35.6181 3.4337 35.4711 3.12556C35.3236 2.81789 35.2696 2.39138 35.0117 2.17578C35.4993 2.88083 35.5862 3.75922 35.9047 4.5709C36.2231 5.38258 36.2776 6.43804 36.3739 7.34273C36.4702 8.24741 36.2593 9.34046 35.9512 10.1611Z" fill="#000002"/>
<path d="M16.4104 6.30914C16.2182 6.30961 15.9336 6.40638 15.7058 6.35612C15.9007 6.43738 15.8852 6.55293 16.0346 6.63795C15.8829 6.62902 15.6757 6.73988 15.7058 6.91978C16.1017 6.94656 16.4879 7.01373 16.8801 7.0607C16.3995 7.07432 15.7706 6.994 15.236 7.01373C14.7015 7.03346 14.088 7.06681 13.6075 7.21712C13.1265 7.36743 12.7451 7.54216 12.313 7.75448C11.8808 7.96679 11.5595 8.20588 11.1861 8.45953C10.8127 8.71271 10.5393 9.01287 10.2452 9.3506C9.9512 9.68833 9.66232 9.96171 9.39975 10.337C9.13764 10.7123 8.86661 10.942 8.66087 11.3836C8.4556 11.8246 8.49318 12.5034 8.47204 13.0262C8.45091 13.549 8.37058 14.2418 8.47204 14.7641C8.57303 15.2865 8.61954 15.7435 8.84406 16.224C9.06906 16.7041 9.04276 16.9578 9.23816 17.3805C9.4331 17.8028 9.80089 18.233 9.5524 18.7098C9.66514 18.6586 9.67782 18.5219 9.74029 18.428C10.536 18.5708 10.9461 19.3158 11.7014 19.7549C12.4567 20.1946 13.3045 20.5516 14.2027 20.6826C15.1008 20.8132 16.4042 20.8104 17.2563 20.5422C18.1079 20.274 18.8529 19.9292 19.5223 19.3792C20.1916 18.8291 20.7248 18.3796 21.1663 17.6412C21.6083 16.9033 22.0898 16.2752 22.2819 15.4218C22.3946 15.4997 22.2312 15.635 22.2819 15.7506C22.4637 15.7322 22.8592 15.6402 22.8911 15.8929C22.9231 16.1456 22.6299 16.3349 22.7516 16.5491C22.9926 15.8966 23.064 15.3231 23.1744 14.6232C23.2847 13.9233 23.1264 13.1342 23.0814 12.4616C23.0367 11.7885 22.5637 11.2642 22.5167 10.6306C22.1612 10.3135 22.0569 9.68927 21.7041 9.32946C21.3514 8.97012 21.0785 8.54267 20.6731 8.19978C20.2682 7.85641 19.8731 7.56706 19.4128 7.29932C18.9525 7.03111 18.4245 6.79813 17.9135 6.63795C17.897 6.63278 17.8792 6.59755 17.8665 6.59098C17.8266 6.57031 17.7622 6.56326 17.7256 6.54401C17.3174 6.42751 16.9693 6.3843 16.8763 5.93712C16.7838 5.48948 16.5517 5.31944 16.4066 4.95071C16.2619 4.58197 16.1083 4.33772 15.9298 4.01831C15.7513 3.6989 15.5836 3.39452 15.3887 3.10329C15.1942 2.81206 15.0482 2.51332 14.8133 2.26953C15.5714 3.54624 16.4277 4.9709 17.021 6.40309C16.8157 6.40168 16.6081 6.32746 16.4104 6.30914ZM15.7058 20.6826C15.4841 20.7043 15.2196 20.7038 15.0012 20.6826C11.4726 20.6826 8.38139 17.3899 8.47204 13.8247C8.5627 10.2595 11.6596 7.27348 15.283 7.20162C18.9065 7.12975 22.1071 10.1101 22.1879 13.7308C22.2687 17.3514 19.3785 20.6826 15.7058 20.6826Z" fill="#EFF4F3"/>
<path d="M19.5563 3.58759C19.2956 3.30294 19.0293 3.05164 18.7578 2.78906C19.0011 3.06996 19.283 3.33253 19.5563 3.58759Z" fill="#624F59" fill-opacity="0.06"/>
<path d="M21.0613 5.23001C21.0613 5.27698 21.0613 5.32395 21.0613 5.37093C20.7118 5.45125 20.1928 5.57338 19.872 5.6847C19.5511 5.79602 19.0518 5.91815 18.8104 6.07927C18.5685 6.24038 17.8879 6.31883 17.8672 6.5922C17.8799 6.59878 17.8977 6.63401 17.9142 6.63918C18.3552 6.52128 18.9612 7.02717 19.4032 7.2174C19.8447 7.40717 20.2985 7.821 20.6963 8.13148C21.0942 8.44197 21.4131 8.87599 21.7152 9.27338C22.0172 9.67076 22.3596 10.1677 22.5644 10.6318C22.6729 10.878 22.7471 11.1546 22.8932 11.3834C23.1159 11.7319 23.2925 12.095 23.409 12.5116C23.525 12.9288 23.6687 13.4393 23.6814 13.8832C23.6941 14.3276 23.7434 15.0298 23.5983 15.4235C23.4531 15.8171 23.532 16.4075 23.222 16.6912C23.8031 16.5292 24.4663 16.6316 25.0572 16.641C25.6481 16.6504 26.1568 16.8373 26.7013 16.9698C27.2461 17.1022 27.4307 17.5771 27.8253 17.8655C27.8408 17.8768 27.8723 17.8655 27.8723 17.8655C28.0865 17.711 28.6243 18.185 28.9057 18.1004C27.8394 17.4423 27.0939 16.159 27.3556 14.9063C27.5228 13.5239 28.124 12.1049 29.5666 11.6215C31.0096 11.1386 32.5028 11.8691 33.2163 13.1791C33.9298 14.4892 33.7743 16.1792 32.8513 17.3488C32.9711 17.2821 33.0937 17.2338 33.2271 17.2079C33.4286 16.9796 33.8547 17.0229 34.1511 16.9106C34.4474 16.7988 34.9017 16.749 35.2469 16.7382C35.5922 16.7274 36.1145 16.7246 36.4527 16.7537C36.7909 16.7828 37.1986 16.8923 37.5025 16.9721C37.8069 17.0515 38.1423 17.199 38.3955 17.3009C38.6482 17.4029 39.0103 17.6603 39.1808 17.7833C39.3514 17.9069 39.8582 18.2573 39.8032 18.3353C39.792 18.3508 39.8032 18.3822 39.8032 18.3822C39.7112 18.4776 39.4345 18.3442 39.4274 18.3353C39.4082 18.331 39.3753 18.2935 39.3335 18.2883C38.6576 18.355 37.9257 18.3719 37.2667 18.5701C37.6528 18.7425 38.0671 18.9252 38.4058 19.216C38.7445 19.5072 38.9821 19.8083 39.2536 20.1531C39.5251 20.4979 39.6971 20.8985 39.8962 21.2959C40.0949 21.6928 40.318 22.4012 39.7525 22.0968C39.1874 21.792 38.9136 21.8356 38.3471 21.7173C37.7806 21.5989 37.2071 21.5787 36.6561 21.6703C37.4701 22.0108 38.2625 22.9254 38.2531 23.784C38.2409 23.7958 38.2062 23.784 38.2062 23.784C37.9497 23.9738 37.3461 23.8174 37.0215 23.9616C36.6965 24.1058 36.2221 24.0917 35.8942 24.2434C35.5663 24.3947 35.2089 24.4468 34.8857 24.5971C34.5621 24.7474 34.2149 24.8611 33.8993 25.0199C33.5832 25.1782 33.2905 25.2998 32.9814 25.4642C32.6724 25.6286 32.3483 25.7677 32.049 25.941C31.7503 26.1148 31.4511 26.2383 31.1566 26.4107C30.8625 26.5836 30.5276 26.7203 30.2679 26.9312C31.4074 26.7226 32.4803 26.1519 33.6038 25.8987C34.7279 25.646 35.8078 25.0673 36.8909 24.9114C36.937 24.9006 37.0037 24.8715 37.0319 24.8644C37.0553 24.8376 37.4076 24.6887 37.6899 24.677C37.9722 24.6652 38.3518 24.5901 38.6289 24.5826C38.9061 24.5751 39.3523 24.7503 39.5787 24.5929C39.8051 24.4355 39.458 24.0997 39.3922 23.9132C39.326 23.7272 39.0136 23.4698 38.9577 23.2673C39.675 23.2608 40.2354 23.2716 40.931 23.4078C41.6267 23.5445 41.5633 22.5637 41.4942 22.0461C41.4252 21.5284 41.2011 20.9263 40.9813 20.4453C40.761 19.9647 40.4049 19.5697 40.226 19.0868C40.4923 19.0868 40.7582 19.0868 41.0245 19.0868C41.1429 19.0934 41.1814 19.1141 41.3063 19.0868C41.6986 18.9215 41.8554 18.5767 41.4825 18.3C41.1095 18.0234 41.0508 17.8068 40.7309 17.5485C40.411 17.2897 40.2729 17.0355 40.0263 16.75C39.7797 16.4644 39.5731 16.2121 39.3697 15.9035C39.1663 15.5949 38.984 15.3004 38.7839 14.9861C38.5838 14.6714 38.4443 14.2952 38.2414 13.9786C38.0389 13.6615 37.8703 13.3116 37.7482 12.9687C37.6261 12.6258 37.3325 12.358 37.1869 12.0269C37.0417 11.6953 36.789 11.4148 36.6054 11.1053C36.4217 10.7962 36.1488 10.5294 35.9985 10.2091C35.9928 10.1969 35.9637 10.1677 35.9515 10.1621C35.9515 10.1621 35.9261 10.1682 35.9045 10.1621C35.5767 10.0658 35.3855 9.51857 35.0943 9.28136C34.8035 9.04416 34.4996 8.6975 34.2253 8.41238C33.9505 8.12773 33.5428 7.91072 33.2633 7.6364C32.9838 7.36208 32.4558 7.23572 32.2407 6.92101C32.2407 6.92101 32.2299 6.89095 32.2407 6.87404C32.2351 6.86182 32.2064 6.83317 32.1937 6.82707C30.9931 6.17039 29.7324 5.53204 28.342 5.4179C28.3608 5.36341 28.4073 5.32771 28.4359 5.27698C28.3086 5.34697 28.1583 5.32395 28.0132 5.32395C27.9535 5.32865 27.8244 5.41649 27.7314 5.37093C27.7703 5.28872 27.8929 5.33992 27.9662 5.32395C27.8878 5.26618 27.822 5.23142 27.6844 5.27698C27.5472 5.32254 27.5538 5.19337 27.5435 5.18304C27.5158 5.15532 27.4429 5.21263 27.4932 5.08533C27.5435 4.95804 27.62 4.95334 27.6374 4.85423C27.59 4.02987 26.5491 4.4747 26.1343 4.76029C26.3701 4.29103 26.5636 4.21917 26.8506 3.73864C27.1372 3.25811 26.4251 3.24919 25.9934 3.30415C25.5617 3.3591 24.9182 3.35957 24.4912 3.49298C24.0647 3.62685 23.5781 3.73723 23.1783 3.91807C22.7791 4.09939 22.3789 4.25862 22.0336 4.51133C21.6884 4.76404 21.3737 4.94395 21.0613 5.23001ZM33.415 10.4909C33.1388 10.1588 32.9185 9.82671 32.5188 9.60218C32.119 9.37766 31.732 9.11743 31.2439 9.04509C30.7559 8.97323 30.1481 8.86284 29.6257 9.00329C29.1034 9.14374 28.7741 9.1226 28.2626 9.47207C27.7506 9.82108 27.6041 9.15313 27.978 8.76467C28.3523 8.37668 28.5449 8.20006 29.0099 8.01171C29.475 7.82382 30.1298 7.77309 30.6281 7.82898C31.1265 7.88488 31.5244 8.07371 31.9236 8.31843C32.3224 8.56363 32.6155 8.8046 32.8875 9.18648C33.1595 9.56837 33.368 10.0198 33.415 10.4909Z" fill="#624F59"/>
<path d="M28.8555 4.80731C29.2721 4.39067 29.7047 3.95805 30.1237 3.53906C29.6817 3.91672 29.235 4.36296 28.8555 4.80731Z" fill="#624F59" fill-opacity="0.05"/>
<path d="M14.7188 6.31219C14.9611 6.28871 15.235 6.25582 15.4703 6.26522C15.3829 5.68041 15.1786 5.10266 14.9536 4.57422C14.8897 4.82787 14.9203 5.20036 14.8282 5.43522C14.7361 5.67008 14.8902 6.13558 14.7188 6.31219Z" fill="#C39B71"/>
<path d="M34.7758 8.75426C35.0473 7.45454 34.9312 6.00498 34.447 4.80859C34.4047 5.87392 34.0721 6.86739 33.6484 7.81482C34.0651 8.04545 34.3962 8.44378 34.7758 8.75426Z" fill="#C39B71"/>
<path d="M14.7188 6.31034C14.3468 6.3465 13.817 6.40851 13.4506 6.5452C13.2378 6.62458 12.9189 6.82891 12.684 6.85897C12.4491 6.88856 12.1194 7.1394 11.9329 7.18825C11.7469 7.23757 11.3739 7.57248 11.2899 7.48464C10.9211 7.64294 10.628 7.93698 10.3152 8.20097C10.0023 8.46495 9.74494 8.73363 9.46968 9.04647C9.1949 9.35977 9.00231 9.68435 8.7651 10.0329C8.52836 10.3819 8.34893 10.7168 8.20425 11.0691C8.05911 11.4209 7.88296 11.8972 7.78197 12.2908C7.68051 12.6845 7.59737 13.188 7.57905 13.685C7.56073 14.1819 7.59502 14.8104 7.673 15.282C7.75097 15.7532 7.85572 16.174 7.98677 16.5653C8.11782 16.9566 8.37053 17.3671 8.33061 17.6776C8.58989 17.6776 8.67491 18.2178 8.82898 18.347C8.98305 18.4757 9.06807 18.8594 9.17611 18.9459C9.47532 19.185 9.92391 19.556 10.2894 19.8994C10.6543 20.2432 11.1738 20.5603 11.6187 20.7778C11.8747 20.9027 12.1654 21.0549 12.4172 21.1536C14.4041 21.9333 16.6128 21.7262 18.5706 21.0126C18.9158 20.836 19.3132 20.6068 19.6509 20.402C19.7261 20.3564 19.8064 20.3029 19.8858 20.2611C21.1442 19.3625 22.2273 17.9684 22.7511 16.5503C22.6294 16.3361 22.9225 16.1468 22.8906 15.8941C22.8587 15.6414 22.4631 15.7334 22.2814 15.7518C22.2306 15.6362 22.3941 15.5009 22.2814 15.4229C22.0892 16.2764 21.6078 16.9045 21.1658 17.6424C20.7242 18.3808 20.1911 18.8303 19.5217 19.3804C18.8524 19.9304 18.1074 20.2752 17.2558 20.5434C16.4037 20.8116 15.1002 20.8144 14.2021 20.6838C13.304 20.5528 12.4562 20.1958 11.7009 19.7561C10.9456 19.3169 10.5355 18.572 9.73977 18.4292C9.6773 18.5231 9.66462 18.6598 9.55189 18.711C9.80037 18.2342 9.43258 17.804 9.23764 17.3817C9.04224 16.9589 9.06854 16.7053 8.84354 16.2252C8.61902 15.7447 8.57251 15.2877 8.47152 14.7653C8.37006 14.243 8.45039 13.5502 8.47152 13.0274C8.49266 12.5046 8.45508 11.8258 8.66035 11.3847C8.86609 10.9432 9.13712 10.7135 9.39923 10.3382C9.6618 9.9629 9.95068 9.68952 10.2447 9.35179C10.5388 9.01406 10.8122 8.71391 11.1856 8.46072C11.559 8.20707 11.8803 7.96799 12.3124 7.75567C12.7446 7.54336 13.126 7.36862 13.607 7.21831C14.0875 7.068 14.701 7.03465 15.2355 7.01492C15.7701 6.99519 16.399 7.07551 16.8796 7.06189C16.4873 7.01492 16.1012 6.94775 15.7052 6.92098C15.6752 6.74107 15.8823 6.63022 16.0341 6.63914C15.8847 6.55412 15.9002 6.43857 15.7052 6.35731C15.9331 6.40757 16.2177 6.31081 16.4098 6.31034C16.1087 6.28215 15.7579 6.27464 15.4704 6.26336C15.2351 6.25397 14.9612 6.28685 14.7188 6.31034Z" fill="#959BA2" fill-opacity="0.99"/>
<path d="M17.9141 6.6387C18.4251 6.79887 18.9531 7.03186 19.4134 7.30007C19.8737 7.56781 20.2688 7.85716 20.6737 8.20053C21.0791 8.54342 21.352 8.97087 21.7047 9.33021C22.0575 9.69001 22.1618 10.3143 22.5173 10.6313C22.5305 10.6431 22.5643 10.6313 22.5643 10.6313C22.3595 10.1673 22.0171 9.67029 21.7151 9.2729C21.413 8.87552 21.0941 8.44149 20.6962 8.13101C20.2984 7.82052 19.8446 7.40669 19.4031 7.21693C18.9611 7.02669 18.3551 6.5208 17.9141 6.6387Z" fill="#463640"/>
<path d="M35.9021 10.163C35.5583 9.7698 35.244 9.28129 34.8335 8.92994C34.423 8.57906 34.0913 8.09054 33.6334 7.82844C33.1754 7.56633 32.7611 7.02756 32.2383 6.92188C32.4534 7.23659 32.9814 7.36294 33.2609 7.63726C33.5404 7.91158 33.9481 8.12859 34.2229 8.41324C34.4972 8.69837 34.8011 9.04502 35.0918 9.28223C35.3831 9.51944 35.5742 10.0667 35.9021 10.163Z" fill="#463640"/>
<path d="M14.9998 20.6854C15.2347 20.6854 15.4696 20.6854 15.7044 20.6854C19.3772 20.6854 22.2674 17.3542 22.1866 13.7335C22.1058 10.1129 18.9051 7.13253 15.2817 7.2044C11.6582 7.27627 8.56135 10.2623 8.4707 13.8275C8.38004 17.3927 11.4713 20.6854 14.9998 20.6854ZM21.0123 17.3974C21.0494 17.8535 20.52 18.1997 20.2607 18.5717C20.2729 18.2114 19.7243 18.645 19.791 18.9005C19.6585 18.9409 19.3377 19.1607 19.5092 19.2763C18.8718 19.6971 18.318 20.049 17.573 20.2993C16.8275 20.5497 15.773 20.6859 14.9529 20.6385C14.1327 20.591 13.283 20.3909 12.5718 20.0602C11.8602 19.73 11.3445 19.3787 10.7606 18.8653C10.1772 18.3518 9.86201 17.8577 9.46087 17.2057C9.05926 16.5542 8.83191 15.8276 8.65905 15.0483C8.4862 14.269 8.56511 13.1173 8.79621 12.3681C9.02685 11.6184 9.25466 10.9321 9.68117 10.2938C10.1077 9.65541 10.5116 9.23924 11.1129 8.76622C11.7137 8.29274 12.282 7.97944 13.0124 7.70653C13.7433 7.43409 14.7443 7.22272 15.5635 7.25137C16.3832 7.28002 17.2827 7.47731 18.0093 7.76478C18.736 8.05178 19.2381 8.4144 19.8262 8.90714C20.4143 9.39988 20.8009 9.89309 21.1964 10.5432C21.5924 11.1928 21.8639 11.9298 21.9982 12.7006C22.1326 13.4714 22.1584 14.681 21.955 15.4278C21.7516 16.1752 21.5778 16.9648 21.0123 17.3974Z" fill="#000002"/>
<path d="M21.0131 17.3947C21.5787 16.9621 21.7525 16.1725 21.9559 15.4252C22.1593 14.6783 22.1334 13.4688 21.9991 12.6979C21.8648 11.9271 21.5933 11.1901 21.1973 10.5405C20.8018 9.89042 20.4152 9.39721 19.8271 8.90447C19.239 8.41173 18.7369 8.04911 18.0102 7.7621C17.2836 7.47463 16.384 7.27735 15.5644 7.2487C14.7452 7.22005 13.7442 7.43142 13.0133 7.70386C12.2829 7.97677 11.7145 8.29007 11.1138 8.76355C10.5125 9.23656 10.1085 9.65274 9.68204 10.2911C9.25553 10.9294 9.02771 11.6157 8.79708 12.3654C8.56598 13.1146 8.48706 14.2664 8.65992 15.0456C8.83278 15.8249 9.06012 16.5516 9.46174 17.2031C9.86288 17.855 10.1781 18.3492 10.7615 18.8626C11.3453 19.376 11.8611 19.7273 12.5727 20.0576C13.2839 20.3882 14.1336 20.5883 14.9537 20.6358C15.7739 20.6832 16.8284 20.547 17.5738 20.2966C18.3188 20.0463 18.8726 19.6945 19.51 19.2736C19.3386 19.158 19.6594 18.9382 19.7919 18.8978C19.7252 18.6423 20.2738 18.2087 20.2616 18.569C20.5209 18.197 21.0503 17.8508 21.0131 17.3947ZM9.41101 16.0795C9.15501 16.1523 9.07656 15.6929 8.9892 15.374C8.90183 15.0545 8.80037 14.5745 8.80037 14.2006C8.80037 13.8267 8.78675 13.2959 8.84734 12.9323C8.90793 12.5688 9.02489 12.1878 9.12823 11.851C9.2311 11.5138 9.36732 11.2254 9.51951 10.9271C9.67123 10.6284 9.98595 10.4113 9.9277 10.067C10.3796 9.86411 10.6609 9.129 11.2288 8.87864C11.7967 8.6278 12.2834 8.20036 12.9447 7.91711C13.6061 7.6334 14.4267 7.42437 15.1886 7.38962C15.9505 7.35486 16.9237 7.47604 17.5945 7.75506C18.2653 8.03407 18.8055 8.30745 19.3574 8.76355C19.9093 9.22012 20.2715 9.63724 20.6735 10.2188C21.0756 10.8003 21.3443 11.4311 21.5289 12.1348C21.7135 12.8389 21.837 13.8774 21.7177 14.6233C21.5984 15.3693 21.3734 16.0748 21.046 16.723C20.7182 17.3703 20.4063 17.8278 19.8976 18.3459C19.3888 18.864 18.9638 19.2064 18.332 19.5517C17.7007 19.8974 17.0078 20.1393 16.268 20.2591C15.5282 20.3788 14.4478 20.2915 13.748 20.1036C13.0476 19.9162 12.4271 19.6221 11.8498 19.2304C11.2725 18.8391 10.8437 18.4417 10.4082 17.9006C9.9728 17.3595 9.61205 16.7366 9.41101 16.0795Z" fill="#1B1B1E"/>
<path d="M9.40882 16.0824C9.60987 16.7395 9.97061 17.3624 10.406 17.9035C10.8415 18.4446 11.2703 18.842 11.8476 19.2333C12.4249 19.625 13.0454 19.9191 13.7458 20.1065C14.4457 20.2944 15.526 20.3818 16.2658 20.262C17.0056 20.1422 17.6985 19.9003 18.3298 19.5546C18.9616 19.2093 19.3867 18.8669 19.8954 18.3488C20.4041 17.8307 20.716 17.3732 21.0438 16.7259C21.3712 16.0777 21.5962 15.3722 21.7156 14.6263C21.8349 13.8803 21.7113 12.8418 21.5267 12.1377C21.3421 11.434 21.0734 10.8032 20.6714 10.2217C20.2693 9.64015 19.9071 9.22304 19.3552 8.76646C18.8033 8.31036 18.2631 8.03699 17.5923 7.75797C16.9216 7.47896 15.9483 7.35777 15.1864 7.39253C14.4245 7.42729 13.6039 7.63631 12.9425 7.92003C12.2812 8.20327 11.7945 8.63072 11.2267 8.88155C10.6588 9.13191 10.3774 9.86702 9.92552 10.0699C9.98376 10.4143 9.66905 10.6313 9.51733 10.93C9.36514 11.2283 9.22892 11.5167 9.12605 11.854C9.02271 12.1907 8.90575 12.5717 8.84516 12.9353C8.78456 13.2988 8.79819 13.8296 8.79819 14.2035C8.79819 14.5774 8.89965 15.0575 8.98701 15.3769C9.07438 15.6958 9.15283 16.1552 9.40882 16.0824ZM18.7093 8.42592C19.0189 8.5565 19.2209 8.74955 19.4609 8.98958C19.9926 9.24934 20.2279 9.80126 20.6023 10.2437C20.9767 10.6858 21.1979 11.3189 21.3858 11.9028C21.5732 12.4867 21.7202 13.3444 21.6686 14.0156C21.6169 14.6868 21.5709 15.4581 21.2458 16.0354C20.4262 18.2286 18.4073 19.9999 16.0319 20.2159C14.2014 20.3822 12.5273 19.7984 11.1468 18.6189C10.9777 18.4747 10.8194 18.3159 10.6771 18.1492C10.1421 17.523 9.71227 16.8048 9.4558 16.0354C9.22047 15.3294 9.10538 14.5525 9.12699 13.7808C9.12981 13.6812 9.16645 13.5661 9.17396 13.4989C9.24489 12.8798 9.31958 12.3462 9.50277 11.7609C9.50794 11.7445 9.53753 11.7252 9.54974 11.714C9.86117 10.5603 10.5794 9.70121 11.5108 8.8839C12.4423 8.06658 13.634 7.66825 14.9046 7.48647C16.1752 7.30469 17.6407 7.7575 18.7093 8.42592Z" fill="#000002"/>
<path d="M9.55078 11.7132C9.88053 11.4079 9.91294 10.7385 10.2446 10.3872C10.5762 10.0358 10.7584 9.60461 11.1596 9.28238C11.5607 8.95968 11.8487 8.66329 12.3081 8.41105C12.7674 8.15881 13.2038 7.91643 13.7346 7.77082C14.2659 7.62567 14.9296 7.53267 15.5163 7.53267C16.1029 7.53267 16.7469 7.6299 17.2857 7.78303C17.8245 7.93569 18.2073 8.21282 18.7104 8.42514C17.6417 7.75672 16.1762 7.30391 14.9056 7.48569C13.635 7.66748 12.4433 8.0658 11.5119 8.88312C10.5804 9.70044 9.86221 10.5596 9.55078 11.7132Z" fill="#959BA2"/>
<path d="M9.55166 11.7118C9.53944 11.7231 9.50985 11.7423 9.50468 11.7588C9.64513 12.2844 9.02557 13.019 9.22285 13.6376C9.15756 13.6254 9.18621 13.5413 9.17588 13.4967C9.16836 13.5639 9.13172 13.679 9.12891 13.7786C9.174 14.4503 9.30693 15.1797 9.45771 15.8453C9.62728 15.765 9.78511 15.8388 9.97441 15.7984C9.86308 15.9355 9.55166 15.8566 9.50468 16.0332C10.0613 15.9426 10.5517 15.7603 11.1487 15.8923C11.1421 15.89 11.1487 15.8453 11.1487 15.8453C10.8448 15.672 10.3943 15.7796 10.0684 15.7984C9.91616 15.098 9.83302 14.3775 9.83349 13.6376C10.159 13.7325 10.5291 13.7725 10.8669 13.6846C10.8425 14.439 10.9721 15.1563 11.1957 15.8453C11.3554 15.8749 11.4987 15.9196 11.6654 15.9393C11.5527 15.2493 11.1924 14.5771 11.2896 13.8255C11.4113 13.9026 11.2586 14.1276 11.3836 14.2013C11.3836 14.0604 11.3836 13.9195 11.3836 13.7786C11.3338 13.2623 11.4221 12.6545 11.6081 12.1712C11.7941 11.6874 11.9778 11.2702 12.2723 10.8625C12.5668 10.4548 12.8444 10.1598 13.2272 9.84463C13.6101 9.52945 14.0027 9.29318 14.4471 9.09167C14.8919 8.89063 15.5505 8.70039 16.0338 8.70556C16.5172 8.71072 17.4031 8.5435 17.6779 8.84647C17.6915 8.84976 17.7408 8.88546 17.7718 8.89344C18.8235 8.8352 20.1237 9.98837 20.6841 10.8663C20.6446 10.7352 20.6023 10.5981 20.4962 10.4435C20.2646 10.203 20.0979 9.97428 19.8503 9.7272C19.6028 9.4806 19.3858 9.25795 19.0762 9.09214C18.7667 8.92633 18.4689 8.74783 18.1152 8.64402C17.761 8.54068 17.3603 8.40634 16.97 8.38004C16.5796 8.3542 15.9859 8.35514 15.6111 8.42372C15.2362 8.4923 14.8717 8.63087 14.5274 8.74924C14.1826 8.86714 13.9036 9.05503 13.603 9.23399C13.3024 9.41343 13.0614 9.60367 12.8045 9.84463C12.5475 10.0856 12.3489 10.312 12.1234 10.5727C11.8979 10.8334 11.7749 11.1542 11.5823 11.4407C11.3897 11.7273 11.3469 12.1792 11.1962 12.4638C11.0454 12.748 11.1417 13.407 10.9139 13.5907C10.7415 13.7297 10.1661 13.6555 9.97441 13.5907C9.91898 13.5719 9.8255 13.5493 9.78652 13.4967C9.60051 13.2459 9.78793 12.787 9.8302 12.507C9.87201 12.2266 9.97535 11.8527 10.0834 11.5859C10.1919 11.3196 10.3577 11.0622 10.4803 10.8085C10.6029 10.5549 10.7969 10.3806 10.9491 10.15C11.1013 9.91932 11.2755 9.70606 11.4893 9.51583C11.7025 9.32512 11.873 9.12032 12.0999 8.95216C12.3268 8.784 12.5612 8.63087 12.8035 8.4815C13.0459 8.33213 13.2892 8.21751 13.5546 8.10525C13.82 7.99299 14.1671 7.90468 14.4401 7.81637C14.7134 7.72806 15.2452 7.7337 15.5016 7.70364C15.7581 7.67358 16.4096 7.6266 16.4096 7.81308C16.4307 7.82013 16.4801 7.81402 16.5035 7.81308C16.7924 7.69002 17.3213 7.91548 17.49 8.00097C18.095 8.16491 18.9654 8.51767 19.4158 8.98739C19.4327 8.97659 19.4628 8.98739 19.4628 8.98739C19.2228 8.74736 19.0208 8.55431 18.7112 8.42372C18.2082 8.21141 17.8253 7.93427 17.2866 7.78161C16.7478 7.62848 16.1038 7.53125 15.5171 7.53125C14.9304 7.53125 14.2667 7.62426 13.7355 7.7694C13.2047 7.91501 12.7683 8.15739 12.3089 8.40963C11.8495 8.66187 11.5616 8.95827 11.1605 9.28097C10.7593 9.6032 10.5771 10.0344 10.2454 10.3858C9.91381 10.7371 9.8814 11.4065 9.55166 11.7118Z" fill="#624F59"/>
<path d="M9.78788 13.4971C9.71413 13.352 9.82076 13.0509 9.83485 12.9335C9.92316 12.2045 10.1665 11.3632 10.5756 10.762C10.9847 10.1607 11.3652 9.63556 11.9369 9.16396C12.5085 8.69282 13.1046 8.30577 13.8125 8.08031C14.5203 7.85484 15.6383 7.5467 16.411 7.8135C16.411 7.62702 15.7595 7.674 15.503 7.70406C15.2465 7.73412 14.7148 7.72849 14.4414 7.81679C14.1685 7.9051 13.8214 7.99341 13.556 8.10567C13.2906 8.21794 13.0473 8.33255 12.8049 8.48192C12.5625 8.63129 12.3281 8.78442 12.1013 8.95258C11.8744 9.12074 11.7039 9.32554 11.4906 9.51625C11.2769 9.70649 11.1026 9.91974 10.9504 10.1504C10.7982 10.381 10.6043 10.5553 10.4817 10.8089C10.3591 11.0626 10.1932 11.32 10.0847 11.5863C9.9767 11.8531 9.87337 12.227 9.83156 12.5074C9.78929 12.7874 9.60187 13.2463 9.78788 13.4971Z" fill="#1B1B1E"/>
<path d="M9.83307 12.9343C9.8373 12.9808 9.82931 13.0287 9.83307 13.0752C10.1252 11.061 11.3254 9.37142 13.201 8.41083C15.0761 7.44978 17.7549 7.78141 19.4154 8.98859C18.9649 8.51887 18.0945 8.16611 17.4895 8.00218C17.1889 7.92091 16.8225 7.80207 16.5031 7.81429C16.4796 7.81523 16.4303 7.82133 16.4092 7.81429C15.6365 7.54748 14.5185 7.85562 13.8107 8.08109C13.1028 8.30656 12.5067 8.69361 11.9351 9.16474C11.3634 9.63634 10.9829 10.1615 10.5738 10.7627C10.1647 11.364 9.92138 12.2053 9.83307 12.9343Z" fill="#EFF4F3"/>
<path d="M16.5039 7.8133C16.8233 7.80109 17.1897 7.91993 17.4903 8.00119C17.3217 7.9157 16.7928 7.69023 16.5039 7.8133Z" fill="#1B1B1E"/>
<path d="M9.83445 12.9345C9.82036 13.0519 9.71373 13.353 9.78748 13.4982C9.82646 13.5508 9.91994 13.5733 9.97536 13.5921C10.3408 13.6602 10.9219 13.6259 10.9045 13.159C10.8866 12.6916 11.1079 12.3572 11.2117 11.9631C11.3155 11.569 11.5208 11.3299 11.7016 10.9969C11.8829 10.6643 12.0915 10.4158 12.3357 10.1279C12.58 9.83996 12.8214 9.67696 13.1084 9.44445C13.3949 9.21194 13.6787 9.02264 14.0187 8.85166C14.3583 8.68021 14.6745 8.54916 15.0587 8.43549C15.4434 8.32181 15.9347 8.23445 16.3636 8.23726C16.7924 8.24008 17.2918 8.25934 17.6798 8.37724C18.0682 8.49467 18.4219 8.606 18.77 8.79013C19.118 8.97426 19.3938 9.11001 19.6516 9.41157C19.9513 9.76198 20.244 10.0758 20.4971 10.445C20.6033 10.5995 20.6456 10.7367 20.685 10.8677C20.8908 11.1899 21.1266 11.654 21.1078 11.995C21.1177 12.034 21.1477 12.066 21.1548 12.089C21.3441 12.2374 21.2971 12.864 21.3896 13.1693C21.3304 13.1656 21.3633 13.0726 21.2957 13.0754C21.2877 13.0641 21.2487 13.0754 21.2487 13.0754C21.4873 13.8298 21.4061 14.6898 21.1548 15.424C21.1242 15.5973 21.0308 15.8214 20.9669 16.0347C20.3262 18.1752 18.1917 19.9521 15.9408 20.0743C15.9216 20.0827 15.9061 20.1626 15.8939 20.1682C15.9376 20.1682 15.9916 20.1757 16.0348 20.1682C16.3941 19.9249 17.0912 20.0287 17.4919 19.7934C17.893 19.5585 18.3576 19.4317 18.7239 19.1466C19.0899 18.861 19.4398 18.6534 19.7573 18.3011C20.0744 17.9483 20.3506 17.6552 20.6028 17.2677C20.8546 16.8802 21.0284 16.4255 21.2487 16.0347C21.5738 15.4574 21.6198 14.6861 21.6715 14.0149C21.7231 13.3436 21.5761 12.4859 21.3887 11.902C21.2008 11.3182 20.9796 10.685 20.6052 10.243C20.2308 9.8005 19.9955 9.24858 19.4638 8.98882C19.4638 8.98882 19.4337 8.97802 19.4168 8.98882C17.7563 7.78163 15.0775 7.45001 13.2024 8.41106C11.3268 9.37164 10.1266 11.0612 9.83445 13.0754C9.83069 13.0289 9.83868 12.981 9.83445 12.9345Z" fill="#959BA2"/>
<path d="M33.412 10.492C33.365 10.0208 33.1564 9.56943 32.8845 9.18755C32.6125 8.80566 32.3194 8.5647 31.9206 8.3195C31.5213 8.07478 31.1235 7.88595 30.6251 7.83005C30.1267 7.77415 29.4719 7.82488 29.0069 8.01277C28.5419 8.20113 28.3493 8.37775 27.9749 8.76574C27.601 9.1542 27.7476 9.82214 28.2596 9.47314C28.7711 9.12367 29.1004 9.1448 29.6227 9.00436C30.145 8.86391 30.7529 8.97429 31.2409 9.04616C31.7289 9.1185 32.116 9.37872 32.5157 9.60325C32.9155 9.82778 33.1358 10.1599 33.412 10.492Z" fill="#000002"/>
<path d="M9.97266 13.5893C10.1643 13.6541 10.7397 13.7283 10.9121 13.5893C11.0704 13.3967 10.921 12.9979 11.0497 12.7405C11.178 12.4826 11.1343 12.2426 11.2846 11.942C11.4344 11.6413 11.4147 11.6695 11.6059 11.2768C11.7971 10.8841 12.1296 10.4233 12.4504 10.1016C12.7717 9.7803 12.6529 9.90759 12.9906 9.60838C13.3279 9.3087 13.8178 9.00807 14.211 8.80891C14.6041 8.60975 14.613 8.6694 14.9367 8.54822C15.2603 8.42703 15.4538 8.38992 15.7606 8.33872C16.0678 8.28752 16.3909 8.24806 16.6897 8.28141C16.9884 8.31476 17.3055 8.36127 17.5826 8.42186C17.8593 8.48292 18.0857 8.56325 18.3347 8.65625C18.5841 8.74879 18.8072 8.86246 19.0266 8.99774C19.2454 9.13349 19.4549 9.23965 19.6489 9.40875C19.3911 9.10719 19.1153 8.97144 18.7673 8.7873C18.4192 8.60317 18.0655 8.49185 17.677 8.37442C17.2891 8.25652 16.7897 8.23726 16.3609 8.23444C15.932 8.23162 15.4407 8.31899 15.056 8.43266C14.6718 8.54634 14.3556 8.67739 14.016 8.84884C13.6759 9.01982 13.3922 9.20912 13.1057 9.44163C12.8187 9.67414 12.5773 9.83713 12.333 10.1251C12.0888 10.413 11.8802 10.6615 11.6989 10.9941C11.518 11.3271 11.3128 11.5662 11.209 11.9603C11.1052 12.3544 10.8839 12.6888 10.9018 13.1562C10.9191 13.6231 10.3381 13.6574 9.97266 13.5893Z" fill="#EFF4F3"/>
<path d="M10.9141 13.5897C11.1419 13.4061 11.0456 12.747 11.1964 12.4629C11.3471 12.1782 11.3899 11.7263 11.5825 11.4398C11.7751 11.1533 11.8981 10.8324 12.1236 10.5718C12.3491 10.3111 12.5478 10.0846 12.8047 9.84368C13.0616 9.60271 13.3026 9.41248 13.6032 9.23304C13.9038 9.05408 14.1829 8.86619 14.5276 8.74829C14.8719 8.62992 15.2364 8.49135 15.6113 8.42277C15.9861 8.35419 16.5799 8.35325 16.9702 8.37909C17.3605 8.40539 17.7612 8.53973 18.1154 8.64307C18.4691 8.74688 18.7669 8.92537 19.0764 9.09119C19.386 9.257 19.603 9.47965 19.8505 9.72625C20.0981 9.97332 20.2648 10.2021 20.4964 10.4426C20.2432 10.0734 19.9506 9.7596 19.6509 9.40919C19.4569 9.24009 19.2474 9.13393 19.0285 8.99818C18.8092 8.8629 18.586 8.74923 18.3366 8.65669C18.0877 8.56369 17.8613 8.48336 17.5846 8.4223C17.3075 8.36171 16.9904 8.3152 16.6916 8.28185C16.3929 8.2485 16.0697 8.28796 15.7625 8.33916C15.4558 8.39036 15.2623 8.42747 14.9386 8.54866C14.615 8.66984 14.6061 8.61019 14.2129 8.80935C13.8198 9.00852 13.3298 9.30914 12.9926 9.60882C12.6549 9.90803 12.7737 9.78074 12.4524 10.102C12.1316 10.4238 11.799 10.8846 11.6078 11.2773C11.4167 11.67 11.4364 11.6418 11.2866 11.9424C11.1362 12.243 11.1799 12.4831 11.0517 12.7409C10.923 12.9983 11.0724 13.3971 10.9141 13.5897Z" fill="#1B1B1E"/>
<path d="M11.3848 13.7785C11.3848 11.1466 13.6569 8.75246 16.3169 8.75246C16.4494 8.73978 16.61 8.73978 16.7396 8.75246C17.0506 8.75246 17.3832 8.77219 17.6791 8.84641C17.4043 8.54344 16.5184 8.71066 16.0351 8.70549C15.5517 8.70033 14.8932 8.89056 14.4483 9.0916C14.004 9.29311 13.6113 9.52939 13.2285 9.84457C12.8456 10.1598 12.568 10.4547 12.2735 10.8625C11.979 11.2702 11.7953 11.6873 11.6093 12.1711C11.4233 12.6544 11.335 13.2623 11.3848 13.7785Z" fill="#1B1B1E"/>
<path d="M16.3164 8.7517C16.4573 8.7517 16.5982 8.7517 16.7392 8.7517C16.6095 8.73902 16.4489 8.73902 16.3164 8.7517Z" fill="#624F59"/>
<path d="M11.3828 13.7799C11.3828 13.9209 11.3828 14.0618 11.3828 14.2027C11.3828 14.8194 11.5049 15.486 11.7586 16.0346C11.9568 16.2004 12.0254 16.5823 12.1813 16.7862C12.8286 17.6312 13.917 18.2028 14.9057 18.3832C15.0382 18.4076 15.2153 18.4588 15.3285 18.4772C15.7155 18.5401 16.243 18.5946 16.6437 18.5241C16.6879 18.5166 16.7616 18.4828 16.8316 18.4772C17.0185 18.4626 17.2121 18.4696 17.3953 18.4302C17.4112 18.4269 17.4521 18.3893 17.4892 18.3832C17.7264 18.3438 17.9608 18.3029 18.1938 18.2423C18.2055 18.2306 18.2243 18.2014 18.2408 18.1953C18.3728 18.1455 18.5376 18.1108 18.6635 18.0544C18.7358 18.0065 18.8105 17.9515 18.8984 17.9135C19.1027 17.8252 19.3291 17.7261 19.509 17.5847C19.5673 17.4842 19.6208 17.4987 19.6969 17.4438C20.1384 16.9849 20.6575 16.6044 20.9651 16.0346C21.029 15.8213 21.1225 15.5973 21.153 15.424C20.6951 16.7631 19.3578 17.9313 17.912 17.9605C17.7898 17.975 17.6541 17.9717 17.5362 17.9605C15.6361 17.9605 14.134 16.1732 14.1542 14.3436C14.1744 12.514 15.6239 10.7267 17.5362 10.7267C17.6686 10.7141 17.8293 10.7141 17.9589 10.7267C19.3916 10.7267 20.8106 11.6953 21.247 13.0754C21.247 13.0754 21.286 13.0641 21.294 13.0754C21.3127 12.793 21.2371 12.3586 21.153 12.0889C21.146 12.0659 21.1159 12.034 21.1061 11.995C20.703 10.4219 19.2878 9.2814 17.771 8.89482C17.74 8.88684 17.6907 8.85114 17.6771 8.84785C17.3812 8.77363 17.0486 8.75391 16.7376 8.75391C16.5967 8.75391 16.4558 8.75391 16.3149 8.75391C13.6549 8.75391 11.3828 11.1481 11.3828 13.7799Z" fill="#EFF4F3"/>
<path d="M17.7695 8.89275C19.2863 9.27933 20.7015 10.4198 21.1046 11.9929C21.1233 11.6519 20.8875 11.1878 20.6818 10.8656C20.1214 9.98767 18.8212 8.8345 17.7695 8.89275Z" fill="#1B1B1E"/>
<path d="M22.752 16.5513C22.2283 17.9694 21.1451 19.3635 19.8867 20.2621C20.1671 20.1142 20.4142 19.8812 20.6735 19.6867C20.9323 19.4918 21.0958 19.0371 21.3898 19.3227C21.464 19.395 21.5091 19.4786 21.5777 19.5575C22.2241 20.2992 23.4045 20.6379 24.3491 20.6379C24.4585 20.6379 24.5684 20.6379 24.6779 20.6379C25.126 20.6379 25.5793 20.5632 25.9941 20.451C26.4093 20.3392 26.6756 20.1733 27.0382 19.9451C27.4009 19.7163 27.5141 19.5439 27.7743 19.178C28.0345 18.8121 27.8044 18.2564 27.825 17.8665C27.4305 17.5781 27.2459 17.1032 26.701 16.9708C26.1566 16.8383 25.6479 16.6514 25.057 16.642C24.466 16.6326 23.8028 16.5302 23.2217 16.6922C23.0503 16.7401 22.8901 16.8303 22.7051 16.8331C23.4425 15.1619 23.4247 13.1191 22.8929 11.3844C22.7469 11.1556 22.6726 10.8789 22.5641 10.6328C22.5641 10.6328 22.5303 10.6446 22.5172 10.6328C22.5641 11.2665 23.0371 11.7907 23.0818 12.4638C23.1269 13.1364 23.2852 13.9256 23.1748 14.6255C23.0644 15.3253 22.993 15.8989 22.752 16.5513ZM24.5839 17.9605C24.4365 17.9746 24.2584 17.9746 24.1142 17.9605C23.729 17.9605 23.2664 17.9816 22.9362 17.7294C22.6064 17.4767 23.3096 17.2545 23.598 17.2094C23.8859 17.1643 24.6807 17.1732 24.963 17.2056C25.2458 17.238 26.0232 17.3968 25.7695 17.6904C25.5163 17.9835 24.9236 17.9605 24.5839 17.9605Z" fill="#1B1B1E"/>
<path d="M17.5352 10.7244C17.6761 10.7244 17.817 10.7244 17.9579 10.7244C17.8283 10.7117 17.6676 10.7117 17.5352 10.7244Z" fill="#959BA2"/>
<path d="M17.5345 17.9603C17.66 17.9603 17.7849 17.9626 17.9103 17.9603C19.3561 17.9312 20.6934 16.763 21.1514 15.4238C21.4027 14.6896 21.484 13.8295 21.2454 13.0752C20.809 11.6951 19.39 10.7266 17.9573 10.7266C17.8164 10.7266 17.6755 10.7266 17.5345 10.7266C15.6223 10.7266 14.1727 12.5139 14.1525 14.3434C14.1323 16.173 15.6345 17.9603 17.5345 17.9603ZM18.1922 10.7735C20.1481 10.9628 21.5995 12.7792 21.2557 14.6826C20.9119 16.5859 19.3204 18.0937 17.3467 17.9133C15.3729 17.7329 14.0422 15.886 14.2432 13.9644C14.4438 12.0427 16.2029 10.5809 18.1922 10.7735Z" fill="#000002"/>
<path d="M18.1956 10.7749C16.2063 10.5823 14.4472 12.0441 14.2466 13.9657C14.0456 15.8873 15.3763 17.7343 17.3501 17.9147C19.3238 18.095 20.9153 16.5872 21.2591 14.6839C21.6029 12.7806 20.1515 10.9642 18.1956 10.7749ZM19.9805 15.66C19.1721 17.5149 15.7431 16.7418 15.8 14.7205C15.7911 14.6679 15.7596 14.6106 15.753 14.5796C15.754 14.5806 15.6459 14.0695 15.7427 13.8177C15.8394 13.566 15.885 13.2963 16.0311 13.0728C16.1776 12.8496 16.3834 12.759 16.5398 12.5481C16.6962 12.3372 17.0612 12.3395 17.2092 12.278C17.5318 12.0802 17.6145 11.557 18.0866 11.5114C18.5582 11.4658 19.0077 11.5213 19.3112 11.9139C19.6146 12.3066 19.477 12.7383 19.8513 13.0648C20.2257 13.3912 20.26 13.8379 20.3093 14.2978C20.3586 14.7576 20.2459 15.2884 19.9805 15.66Z" fill="#1B1B1E"/>
<path d="M23.2198 16.6907C23.5298 16.407 23.4509 15.8165 23.5961 15.4229C23.7412 15.0293 23.6919 14.327 23.6792 13.8827C23.6665 13.4388 23.5228 12.9282 23.4068 12.5111C23.2903 12.0944 23.1137 11.7313 22.891 11.3828C23.4227 13.1175 23.4406 15.1603 22.7031 16.8316C22.8882 16.8288 23.0484 16.7386 23.2198 16.6907Z" fill="#463640"/>
<path d="M17.2081 12.2761C16.8375 12.503 16.3363 12.6176 16.116 13.0629C15.8957 13.5082 15.634 14.0427 15.7519 14.5777C15.7585 14.6087 15.79 14.6661 15.7989 14.7187C16.1413 16.738 18.7666 17.3562 19.9795 15.6581C20.2448 15.2866 20.3576 14.7558 20.3083 14.2959C20.2589 13.8361 20.2246 13.3893 19.8503 13.0629C19.4759 12.7364 19.6135 12.3048 19.3101 11.9121C19.0067 11.5194 18.5571 11.464 18.0855 11.5095C17.6135 11.5551 17.5308 12.0784 17.2081 12.2761ZM18.6173 11.5245C19.978 11.7683 19.5872 13.9657 18.1945 13.6853C16.8018 13.4048 17.2217 11.2747 18.6173 11.5245Z" fill="#000002"/>
<path d="M27.3555 14.907C27.3677 14.8952 27.4024 14.907 27.4024 14.907C27.6387 13.3578 28.8393 11.9491 30.5026 11.9947C32.1659 12.0403 33.4619 13.4621 33.4619 15.0949C33.4731 15.2128 33.4731 15.356 33.4619 15.4707C33.4619 16.2128 33.1716 16.9771 32.6164 17.4905C32.8 17.3946 33.0297 17.3303 33.227 17.2556C33.2373 17.2495 33.227 17.2086 33.227 17.2086C33.0936 17.2345 32.971 17.2828 32.8512 17.3495C33.7742 16.1799 33.9297 14.4899 33.2162 13.1798C32.5027 11.8698 31.0094 11.1393 29.5665 11.6222C28.1239 12.1056 27.5227 13.5246 27.3555 14.907ZM33.5088 14.3433C33.6192 14.682 33.6079 15.0549 33.6028 15.4237C33.552 15.0996 33.5032 14.6407 33.5088 14.3433Z" fill="#000002"/>
<path d="M18.6164 11.5242C17.2209 11.2744 16.801 13.4045 18.1937 13.685C19.5864 13.9654 19.9772 11.768 18.6164 11.5242Z" fill="#EFF4F3"/>
<path d="M9.17578 13.4958C9.18612 13.5404 9.15746 13.6245 9.22275 13.6367C9.02547 13.0181 9.64503 12.2834 9.50459 11.7578C9.3214 12.3431 9.24671 12.8767 9.17578 13.4958Z" fill="#959BA2"/>
<path d="M27.4008 14.9055C27.1688 16.4256 28.158 17.9949 29.7025 18.2406C30.6354 18.389 31.9064 18.1438 32.6148 17.489C33.17 16.9756 33.4603 16.2114 33.4603 15.4692C33.4603 15.3438 33.4603 15.2188 33.4603 15.0934C33.4603 13.4607 32.1643 12.0388 30.501 11.9933C28.8377 11.9477 27.6371 13.3564 27.4008 14.9055ZM30.3601 13.1676C31.9464 13.425 32.6279 15.5932 31.6861 16.8892C30.7443 18.1851 28.6574 17.9456 28.0599 16.4077C27.4619 14.8694 28.5221 12.8693 30.3601 13.1676Z" fill="#EFF4F3"/>
<path d="M21.1523 12.0859C21.2364 12.3556 21.312 12.7901 21.2933 13.0724C21.3609 13.0695 21.328 13.1625 21.3872 13.1663C21.2947 12.861 21.3416 12.2344 21.1523 12.0859Z" fill="#624F59"/>
<path d="M15.7498 14.579C15.6319 14.044 15.8936 13.5094 16.1139 13.0641C16.3342 12.6188 16.8354 12.5042 17.206 12.2773C17.058 12.3389 16.693 12.3365 16.5366 12.5474C16.3802 12.7583 16.1745 12.849 16.0279 13.0721C15.8818 13.2957 15.8363 13.5653 15.7395 13.8171C15.6427 14.0689 15.7508 14.5799 15.7498 14.579Z" fill="#624F59"/>
<path d="M30.3582 13.1705C28.5201 12.8722 27.46 14.8723 28.0579 16.4106C28.6554 17.9485 30.7424 18.188 31.6842 16.8921C32.626 15.5961 31.9444 13.4279 30.3582 13.1705ZM30.2642 13.2174C31.8354 13.442 32.5395 15.474 31.6771 16.7911C30.8152 18.1082 28.7 17.8672 28.1072 16.4078C27.514 14.9484 28.5375 12.9708 30.2642 13.2174Z" fill="#000002"/>
<path d="M30.2678 13.2163C28.5411 12.9697 27.5175 14.9472 28.1108 16.4067C28.7036 17.8661 30.8188 18.1071 31.6807 16.79C32.5431 15.4729 31.839 13.4408 30.2678 13.2163ZM30.6905 14.3906C30.9526 14.7326 31.3655 15.0097 31.3012 15.518C31.2368 16.0262 31.1316 16.3799 30.7023 16.657C30.2734 16.9346 29.7567 16.9614 29.318 16.7026C28.8788 16.4442 28.7712 16.145 28.6242 15.6584C28.4772 15.1722 28.9803 14.7899 29.1874 14.4376C29.3377 14.1046 29.4711 13.8138 29.8953 13.7833C30.3194 13.7532 30.5233 14.0844 30.6905 14.3906Z" fill="#463640"/>
<path d="M11.1473 15.8444C11.1651 15.8547 11.1942 15.8444 11.1942 15.8444C10.9706 15.1553 10.841 14.4381 10.8654 13.6837C10.5277 13.7715 10.1576 13.7316 9.83203 13.6367C9.83156 14.3765 9.9147 15.0971 10.0669 15.7974C10.3929 15.7787 10.8433 15.6711 11.1473 15.8444Z" fill="#959BA2"/>
<path d="M9.45638 16.032C9.45825 16.0381 9.50335 16.032 9.50335 16.032C9.55032 15.8554 9.86175 15.9343 9.97307 15.7972C9.78377 15.8375 9.62595 15.7638 9.45638 15.8441C9.30559 15.1785 9.17266 14.449 9.12757 13.7773C9.10596 14.5491 9.22104 15.326 9.45638 16.032Z" fill="#959BA2"/>
<path d="M29.1846 14.4375C28.9883 14.8715 28.4659 15.3431 28.7515 15.904C29.0366 16.4653 29.3297 16.8063 29.9831 16.7861C30.6365 16.7659 30.9395 16.4808 31.2011 15.8903C31.4628 15.2994 30.9353 14.8443 30.6877 14.3905C30.5205 14.0842 30.3166 13.7531 29.8925 13.7832C29.4683 13.8137 29.3349 14.1044 29.1846 14.4375ZM30.171 13.8738C30.9827 14.0749 30.5336 15.5108 29.7168 15.1735C28.9 14.8363 29.3194 13.6629 30.171 13.8738Z" fill="#000002"/>
<path d="M11.6657 15.938C11.6694 15.961 11.6657 15.9849 11.6657 15.9849C11.6798 15.9873 11.7502 16.0239 11.7596 16.0319C11.506 15.4833 11.3839 14.8167 11.3839 14.2C11.2589 14.1263 11.4116 13.9013 11.2899 13.8242C11.1927 14.5758 11.553 15.2479 11.6657 15.938Z" fill="#1B1B1E"/>
<path d="M30.1714 13.8728C29.3198 13.6619 28.9003 14.8353 29.7171 15.1726C30.534 15.5098 30.983 14.0739 30.1714 13.8728Z" fill="#EFF4F3"/>
<path d="M33.5083 14.3438C33.5026 14.6411 33.5515 15.1 33.6022 15.4241C33.6074 15.0554 33.6186 14.6824 33.5083 14.3438Z" fill="#1B1B1E"/>
<path d="M29.1874 14.4376C28.9802 14.7899 28.4771 15.1722 28.6242 15.6584C28.7712 16.145 28.8788 16.4443 29.3179 16.7026C29.7567 16.9614 30.2734 16.9346 30.7022 16.657C31.1315 16.3799 31.2368 16.0262 31.3011 15.518C31.3655 15.0097 30.9526 14.7326 30.6905 14.3906C30.938 14.8444 31.4655 15.2995 31.2039 15.8904C30.9422 16.4809 30.6393 16.766 29.9859 16.7862C29.3325 16.8064 29.0394 16.4654 28.7543 15.9041C28.4687 15.3432 28.991 14.8716 29.1874 14.4376Z" fill="#624F59"/>
<path d="M19.9781 15.6582C18.7653 17.3562 16.14 16.7381 15.7976 14.7188C15.7407 16.74 19.1697 17.5131 19.9781 15.6582Z" fill="#624F59"/>
<path d="M27.8701 17.8668C28.4591 18.1101 29.1036 18.2299 29.702 18.2426C28.1575 17.9969 27.1683 16.4276 27.4003 14.9076C27.4003 14.9076 27.3656 14.8958 27.3534 14.9076C27.0917 16.1603 27.8372 17.4436 28.9035 18.1017C28.6221 18.1862 28.0843 17.7123 27.8701 17.8668Z" fill="#463640"/>
<path d="M33.4609 15.4695C33.4722 15.3549 33.4722 15.2117 33.4609 15.0938C33.4609 15.2192 33.4609 15.3441 33.4609 15.4695Z" fill="#624F59"/>
<path d="M9.504 16.035C9.504 16.035 9.45891 16.0411 9.45703 16.035C9.7135 16.8044 10.1433 17.5226 10.6783 18.1487C10.831 18.3014 10.9973 18.4677 11.148 18.6185C12.5285 19.7979 14.2026 20.3818 16.0331 20.2155C16.0327 20.2155 16.0331 20.1685 16.0331 20.1685C15.9899 20.1761 15.9359 20.1685 15.8922 20.1685C14.4666 20.1685 12.9095 19.8947 11.8019 19.045C10.6943 18.1952 10.001 17.3432 9.55098 16.082C9.73839 16.0359 9.92534 15.9871 10.1146 15.941C10.5416 17.105 10.8455 18.3376 11.9818 19.053C13.1176 19.7688 14.5202 20.2244 15.9392 20.0746C18.1901 19.9525 20.3245 18.1755 20.9652 16.035C20.6576 16.6048 20.1385 16.9852 19.697 17.4442C19.6176 17.5268 19.5542 17.6104 19.4621 17.679C18.6213 18.3042 17.6208 18.7594 16.5498 18.7594C16.2962 18.7838 16.004 18.7955 15.7513 18.7594C14.8297 18.7241 13.9105 18.409 13.1678 17.8669C13.1213 17.8331 13.1072 17.8157 13.0739 17.773C12.7441 17.4404 12.46 17.1609 12.1814 16.7865C12.017 16.5653 11.8136 16.0834 11.5708 15.988C11.4247 15.9706 11.2913 15.926 11.148 15.8941C10.551 15.7621 10.0606 15.9443 9.504 16.035Z" fill="#F3E4B7"/>
<path d="M11.1475 15.8907C11.2907 15.9227 11.4241 15.9673 11.5702 15.9847C11.5932 15.9875 11.6416 15.9804 11.6641 15.9847C11.6641 15.9847 11.6679 15.9607 11.6641 15.9377C11.4974 15.918 11.3541 15.8733 11.1944 15.8438C11.1944 15.8438 11.1653 15.8541 11.1475 15.8438C11.1475 15.8438 11.1409 15.8884 11.1475 15.8907Z" fill="#463640"/>
<path d="M15.892 20.1689C15.9042 20.1633 15.9197 20.0834 15.939 20.075C14.52 20.2248 13.1174 19.7692 11.9816 19.0533C10.8453 18.3379 10.5414 17.1054 10.1144 15.9414C9.92515 15.9874 9.7382 16.0363 9.55078 16.0823C10.0008 17.3435 10.6941 18.1956 11.8017 19.0453C12.9093 19.8951 14.4664 20.1689 15.892 20.1689Z" fill="#C39B71"/>
<path d="M12.181 16.7843C12.025 16.5804 11.9564 16.1985 11.7582 16.0327C11.7488 16.0248 11.6783 15.9881 11.6643 15.9858C11.6417 15.9815 11.5933 15.9886 11.5703 15.9858C11.8132 16.0811 12.0165 16.5631 12.181 16.7843Z" fill="#C39B71"/>
<path d="M16.0315 20.1687C16.0315 20.1687 16.031 20.2157 16.0315 20.2157C18.4068 19.9996 20.4257 18.2283 21.2454 16.0352C21.0251 16.426 20.8513 16.8807 20.5995 17.2682C20.3473 17.6557 20.0711 17.9488 19.754 18.3016C19.4365 18.6539 19.0865 18.8615 18.7206 19.1471C18.3542 19.4322 17.8897 19.559 17.4885 19.7939C17.0879 20.0292 16.3908 19.9254 16.0315 20.1687Z" fill="#EFF4F3"/>
<path d="M33.2266 17.2078C33.2266 17.2078 33.2369 17.2487 33.2266 17.2548C35.3107 16.4661 38.1793 16.6052 39.8027 18.3351C39.8576 18.2572 39.3508 17.9068 39.1803 17.7832C39.0098 17.6601 38.6476 17.4027 38.3949 17.3008C38.1417 17.1989 37.8064 17.0514 37.502 16.972C37.1981 16.8922 36.7903 16.7827 36.4521 16.7536C36.1139 16.7245 35.5916 16.7273 35.2464 16.7381C34.9011 16.7489 34.4469 16.7987 34.1505 16.9105C33.8541 17.0227 33.4281 16.9795 33.2266 17.2078Z" fill="#463640"/>
<path d="M13.0761 17.7716C13.0286 17.711 12.9727 17.649 12.9351 17.5837C13.5336 17.9266 14.2189 18.4311 14.908 18.3822C13.9192 18.2018 12.8309 17.6302 12.1836 16.7852C12.4621 17.1595 12.7463 17.439 13.0761 17.7716Z" fill="#624F59"/>
<path d="M33.2253 17.2539C33.028 17.3286 32.7983 17.3929 32.6147 17.4887C31.9063 18.1435 30.6352 18.3887 29.7024 18.2403C29.104 18.2276 28.4595 18.1078 27.8705 17.8645C27.8705 17.8645 27.839 17.8758 27.8235 17.8645C27.8028 18.2544 28.033 18.8101 27.7728 19.176C27.5125 19.5419 27.3993 19.7143 27.0367 19.943C26.6741 20.1713 26.4077 20.3371 25.9925 20.4489C25.5777 20.5612 25.1245 20.6359 24.6763 20.6359C24.6867 20.6424 24.6763 20.7063 24.6763 20.7298C24.6763 21.0027 24.6388 21.3052 24.6763 21.5753C24.6843 21.6317 24.72 21.7252 24.7233 21.8102C24.7454 22.3579 24.8868 22.604 25.3917 22.7858C25.8967 22.9676 26.3753 23.0019 26.884 22.9845C27.3928 22.9671 27.8799 22.9206 28.2942 22.7506C28.7089 22.5805 29.1049 22.4452 29.4313 22.1968C29.7573 21.9483 30.1124 21.681 30.2191 21.2935C30.2252 21.2719 30.212 21.2207 30.2191 21.1995C30.1247 21.0638 29.887 21.1629 29.7963 21.0586C30.3163 20.7167 31.2783 20.9689 31.2994 21.6693C31.0838 21.5302 30.8786 21.3372 30.5949 21.3874C30.1575 22.3405 29.1105 22.8797 28.1523 23.1254C28.072 23.1498 27.9696 23.2001 27.8705 23.2193C27.2321 23.3448 26.504 23.3556 25.8507 23.2663C25.783 23.2569 25.7553 23.2344 25.7097 23.2193C25.3527 23.1028 25.0244 22.984 24.6763 22.8436C24.6543 22.8497 24.6012 22.8342 24.5824 22.8436C23.6481 23.3015 22.7979 23.4575 21.7171 23.3603C21.6645 23.3556 21.6513 23.3194 21.6232 23.3133C20.7373 23.1216 19.8828 22.8948 19.2276 22.186C18.9843 22.1714 18.7165 22.5641 18.4436 22.6233C18.1702 22.682 17.9429 22.9478 17.6451 23.046C17.3468 23.1437 17.0791 23.3504 16.7348 23.4039C16.3904 23.457 16.4346 23.9502 16.6117 24.1912C16.7883 24.4326 16.964 24.6745 17.1725 24.8986C17.3806 25.1231 17.5849 25.2828 17.8067 25.4858C18.0284 25.6887 18.2651 25.8798 18.5089 26.0518C18.7522 26.2242 18.9481 26.4243 19.2135 26.5685C19.4789 26.7131 19.6996 26.8907 19.9829 27.0203C20.2657 27.1504 20.5447 27.304 20.8354 27.436C21.1262 27.568 21.4094 27.662 21.718 27.7747C22.0271 27.887 22.3353 27.9927 22.6598 28.1012C22.9844 28.2097 23.3442 28.1993 23.6899 28.2923C24.0356 28.3849 24.4856 28.3957 24.8642 28.3863C25.2428 28.3769 25.6853 28.3966 26.0385 28.3393C26.3918 28.282 26.7013 28.1951 27.0282 28.1077C27.3552 28.0204 27.707 27.925 28.0123 27.8236C28.3181 27.7221 28.5873 27.5539 28.8677 27.4576C29.1481 27.3614 29.5032 27.1237 29.7287 27.1547C29.9546 27.1857 30.2839 27.0673 30.5981 26.9804C30.9129 26.894 31.2651 26.793 31.5813 26.6953C31.2745 27.374 30.4657 27.4248 29.8395 27.7719C29.2139 28.119 28.5708 28.3698 27.8855 28.6362C27.2006 28.9025 26.4829 29.166 25.7464 29.3624C25.0094 29.5582 24.0601 29.6968 23.2672 29.7015C22.4743 29.7062 21.3888 29.6667 20.6837 29.4666C19.9787 29.2665 19.0016 29.1486 19.0397 28.3393C18.8048 28.4286 18.7315 28.685 18.523 28.809C18.5526 28.0495 18.5018 27.3017 18.1472 26.6483C18.6747 26.6882 19.2092 27.0593 19.6973 27.0241C19.3788 26.9508 19.0754 26.8235 18.7578 26.7423C18.7151 26.7315 18.6911 26.7047 18.6639 26.6953C18.4657 26.6276 18.2552 26.575 18.0533 26.5074C18.0415 26.5196 18.0533 26.5544 18.0533 26.5544C18.2581 27.0518 18.429 27.4971 18.429 28.0575C18.4403 28.1754 18.4403 28.3182 18.429 28.4333C18.429 29.0561 18.1716 29.6235 18.1942 30.2182C18.1951 30.2417 18.1834 30.2962 18.1942 30.3121C18.492 30.4535 18.8715 30.0158 19.0867 29.8894C18.5493 30.8908 18.2092 32.0501 18.3821 33.2244C18.3858 33.2249 18.4746 33.1789 18.476 33.1775C18.7616 32.866 18.9011 32.3028 19.3215 32.0971C19.376 32.0539 19.4404 31.9895 19.5094 31.9562C19.2515 33.0074 19.5423 34.0859 19.8852 35.0563C19.9711 35.0634 19.9007 35.186 19.9791 35.1973C20.1802 34.9229 20.7612 35.0873 21.2004 35.0563C21.6396 35.0253 22.1939 35.07 22.6565 35.0563C23.1192 35.0427 23.6416 35.062 24.1127 35.0563C24.5838 35.0507 25.046 35.0568 25.5218 35.0563C25.9977 35.0559 26.4993 35.0521 26.978 35.0563C27.4566 35.0606 27.9574 35.0446 28.4341 35.0563C28.9109 35.0681 29.3693 35.0282 29.8433 35.0563C30.1463 34.0845 30.213 32.9806 30.0312 31.9562C30.3882 32.2723 30.3999 32.6974 30.5469 33.2254C30.694 33.7538 30.4563 34.4706 30.5009 34.9624C30.5864 34.6702 30.5892 34.3193 30.6418 34.023C30.694 33.7266 30.5648 33.2592 30.5582 33.0262C30.5516 32.7928 30.2552 32.3428 30.36 32.238C30.4225 32.1755 30.6911 32.5142 30.771 32.6255C30.8513 32.7369 31.0448 33.0431 31.1115 33.1775C31.2788 33.1042 31.1548 32.6838 31.3464 32.7547C31.3516 32.7326 31.3464 32.6842 31.3464 32.6608C31.229 32.3841 31.3384 31.9923 31.3464 31.7213C31.3182 31.0703 31.0124 30.4578 30.7358 29.8894C30.9904 30.0463 31.2783 30.1501 31.5813 30.1712C31.6978 30.1595 31.8274 30.2069 31.9101 30.1243C31.0284 29.2017 30.98 27.6324 31.7222 26.6013C31.0683 26.7263 30.3811 27.079 29.7494 27.0711C32.4737 25.7765 35.0647 23.8676 38.2044 23.783C38.2044 23.783 38.2391 23.7948 38.2513 23.783C38.179 22.8205 37.2475 21.9074 36.3724 21.6223C37.6181 21.3663 38.9362 21.681 40.0832 22.139C39.9456 21.2169 39.4097 20.4095 38.815 19.6964C38.6962 19.5776 38.5595 19.432 38.4392 19.3206C38.0235 18.9923 37.559 18.7321 37.077 18.5691C37.7905 18.3314 38.5487 18.2539 39.3317 18.2873C39.3735 18.2924 39.4064 18.33 39.4256 18.3342C39.5539 18.3619 39.6751 18.3464 39.8014 18.3812C39.8014 18.3812 39.7901 18.3497 39.8014 18.3342C38.178 16.6042 35.3095 16.4652 33.2253 17.2539ZM21.4822 33.2714C21.2159 32.8289 21.361 32.2714 21.4822 31.8153C21.6321 32.1041 21.7077 32.6091 21.8942 32.9534C22.0807 33.2977 22.2601 33.6101 22.5743 33.8703C22.8886 34.131 23.2193 34.3085 23.596 34.4457C22.8139 34.7961 21.9562 34.1371 21.5762 33.4593C20.2675 33.5894 19.4638 31.873 20.0731 30.7819C20.2276 31.6997 20.5846 32.7843 21.4822 33.2714ZM24.5824 33.4123C24.8483 33.9539 25.3579 34.41 25.9446 34.5396C25.2663 35.0667 24.2386 34.1756 24.5824 33.4123Z" fill="#F3E4B7"/>
<path d="M24.1118 17.9578C24.2683 17.9578 24.4252 17.9578 24.5816 17.9578C24.9212 17.9578 25.514 17.9809 25.7671 17.6878C26.0208 17.3942 25.2434 17.2354 24.9606 17.203C24.6783 17.1706 23.8836 17.1617 23.5956 17.2068C23.3072 17.2519 22.604 17.474 22.9338 17.7267C23.264 17.979 23.7267 17.9578 24.1118 17.9578ZM25.8028 17.5351C25.0161 18.1354 23.7859 17.9461 22.8906 17.676C23.0695 17.2185 23.7553 17.2354 24.2528 17.2063C24.7502 17.1772 25.3843 17.2594 25.8028 17.5351Z" fill="#959BA2"/>
<path d="M25.8029 17.5375C25.3844 17.2617 24.7503 17.1795 24.2528 17.2087C23.7554 17.2378 23.0696 17.2209 22.8906 17.6784C23.7859 17.9485 25.0161 18.1378 25.8029 17.5375Z" fill="#624F59"/>
<path d="M19.5079 17.5823C19.4948 17.6049 19.476 17.6594 19.4609 17.6763C19.553 17.6077 19.6164 17.5241 19.6958 17.4414C19.6197 17.4964 19.5662 17.4818 19.5079 17.5823Z" fill="#C39B71"/>
<path d="M13.0745 17.7699C13.1079 17.8127 13.122 17.83 13.1685 17.8639C13.5607 18.0132 13.9078 18.2692 14.3907 18.4266C14.874 18.5839 15.44 18.6849 15.9868 18.7094C16.5335 18.7343 17.1733 18.6384 17.6787 18.5224C18.1846 18.4069 18.5905 18.1396 18.8991 17.9108C18.8112 17.9489 18.7365 18.0038 18.6642 18.0518C18.5214 18.1457 18.3899 18.2298 18.2415 18.1927C18.225 18.1988 18.2062 18.2279 18.1945 18.2396C18.032 18.4055 17.6736 18.405 17.4899 18.3806C17.4528 18.3867 17.4119 18.4242 17.396 18.4275C17.3161 18.5323 17.0047 18.483 16.8323 18.4745C16.7623 18.4801 16.6886 18.514 16.6444 18.5215C16.535 18.5675 16.17 18.5257 15.9398 18.5684C15.7097 18.6112 15.2719 18.4543 15.3292 18.4745C15.216 18.4562 15.0389 18.405 14.9064 18.3806C14.2173 18.4294 13.532 17.9249 12.9336 17.582C12.9712 17.6473 13.0271 17.7093 13.0745 17.7699Z" fill="#959BA2"/>
<path d="M18.8986 17.9108C18.59 18.1396 18.1841 18.4069 17.6782 18.5224C17.1728 18.6384 16.5331 18.7343 15.9863 18.7094C15.4395 18.6849 14.8735 18.5839 14.3902 18.4266C13.9073 18.2692 13.5602 18.0132 13.168 17.8639C13.9106 18.4059 14.8298 18.7211 15.7514 18.7563C16.0168 18.7667 16.2846 18.7563 16.55 18.7563C17.6209 18.7563 18.6214 18.3012 19.4622 17.676C19.4773 17.6591 19.4961 17.6046 19.5092 17.582C19.3293 17.7234 19.1029 17.8225 18.8986 17.9108Z" fill="#624F59"/>
<path d="M17.9109 17.9609C17.7855 17.9633 17.6606 17.9609 17.5352 17.9609C17.6531 17.9722 17.7888 17.9755 17.9109 17.9609Z" fill="#959BA2"/>
<path d="M24.583 17.9609C24.4266 17.9609 24.2697 17.9609 24.1133 17.9609C24.2575 17.975 24.4355 17.975 24.583 17.9609Z" fill="#624F59"/>
<path d="M18.2422 18.1956C18.3906 18.2327 18.5221 18.1486 18.6649 18.0547C18.5391 18.1111 18.3742 18.1458 18.2422 18.1956Z" fill="#624F59"/>
<path d="M11.1494 18.6182C10.9986 18.4674 10.8323 18.3011 10.6797 18.1484C10.822 18.3152 10.9803 18.474 11.1494 18.6182Z" fill="#463640"/>
<path d="M17.4883 18.3831C17.6719 18.4075 18.0303 18.408 18.1929 18.2422C17.9599 18.3028 17.7255 18.3436 17.4883 18.3831Z" fill="#624F59"/>
<path d="M38.4379 19.322C38.5793 19.4333 38.6995 19.5639 38.8137 19.6978C39.4083 20.4108 39.9443 21.2183 40.0819 22.1403C38.9348 21.6824 37.6168 21.3676 36.3711 21.6236C37.2462 21.9088 38.1776 22.8219 38.25 23.7844C38.2594 22.9257 37.467 22.0112 36.6529 21.6706C37.2039 21.579 37.7774 21.5992 38.3439 21.7176C38.9104 21.836 39.1843 21.7923 39.7493 22.0971C40.3149 22.4015 40.0918 21.6932 39.8931 21.2962C39.6939 20.8989 39.522 20.4982 39.2505 20.1534C38.979 19.8086 38.7413 19.5075 38.4026 19.2163C38.064 18.9256 37.6497 18.7428 37.2636 18.5704C37.9226 18.3722 38.6544 18.3553 39.3303 18.2886C38.5473 18.2553 37.7892 18.3328 37.0757 18.5704C37.5576 18.7334 38.0222 18.9937 38.4379 19.322Z" fill="#463640"/>
<path d="M39.8016 18.3829C39.6752 18.3482 39.554 18.3637 39.4258 18.3359C39.4328 18.3449 39.7095 18.4783 39.8016 18.3829Z" fill="#463640"/>
<path d="M16.832 18.4767C17.0044 18.4851 17.3158 18.5344 17.3957 18.4297C17.2125 18.4691 17.019 18.4621 16.832 18.4767Z" fill="#463640"/>
<path d="M16.6446 18.5214C16.2439 18.5919 15.7164 18.5374 15.3293 18.4745C15.272 18.4543 15.7098 18.6112 15.94 18.5684C16.1701 18.5257 16.5351 18.5675 16.6446 18.5214Z" fill="#463640"/>
<path d="M16.5485 18.7578C16.2831 18.7578 16.0154 18.7681 15.75 18.7578C16.0027 18.794 16.2949 18.7822 16.5485 18.7578Z" fill="#C39B71"/>
<path d="M9.17421 18.9453C9.10986 18.974 8.9478 19.1717 8.89238 19.2271C8.61994 19.5461 8.31086 19.8495 8.04688 20.1666C8.73361 20.5024 9.59132 21.1591 9.45604 22.0455C9.38324 22.5227 8.91915 22.7984 8.93982 23.3142C8.96002 23.83 8.6561 24.4763 8.79843 24.9578C8.71623 24.4509 9.0596 23.8929 8.98632 23.4077C8.91304 22.9225 9.37619 22.5833 9.65567 22.2451C9.93516 21.9069 10.5928 21.7768 10.9629 22.0887C11.3335 22.4006 11.5599 22.867 11.5698 23.3607C11.597 23.0807 11.4876 22.7144 11.5698 22.5622C11.4345 22.3696 11.2152 22.2052 11.0531 22.0455C10.9996 22.0013 10.9385 21.9473 10.8652 21.9515C11.0179 21.6326 11.3016 21.2192 11.5698 20.9181C11.5895 20.8829 11.582 20.812 11.6168 20.7772C11.1719 20.5597 10.6524 20.2427 10.2875 19.8988C9.92201 19.5555 9.47342 19.1844 9.17421 18.9453ZM9.03329 19.2271C9.18736 19.4418 9.32217 19.6865 9.54999 19.8378C9.43303 20.1558 9.00793 20.3193 8.89238 20.6363C8.66738 20.4747 8.46211 20.2737 8.18779 20.2136C8.37991 19.842 8.76837 19.5475 9.03329 19.2271Z" fill="#000002" fill-opacity="0.99"/>
<path d="M8.89453 19.2271C8.94996 19.1717 9.11201 18.974 9.17636 18.9453C9.14959 19.0106 8.95184 19.16 8.89453 19.2271Z" fill="#624F59" fill-opacity="0.04"/>
<path d="M40.5078 19.1812C40.6628 19.1643 40.8559 19.224 40.9775 19.1342C40.8272 19.1559 40.6229 19.0845 40.5078 19.1812Z" fill="#624F59" fill-opacity="0.2"/>
<path d="M19.8833 20.2617C19.8039 20.3035 19.7236 20.357 19.6484 20.4026C19.655 20.4016 19.833 20.4505 19.8363 20.4496C20.0106 20.3495 20.2121 20.1926 20.3883 20.109C20.5639 20.0249 20.733 19.7868 20.9049 19.7332C21.0764 19.6792 21.2262 19.3128 21.3864 19.3222C21.0924 19.0366 20.9289 19.4913 20.6701 19.6863C20.4108 19.8807 20.1637 20.1137 19.8833 20.2617Z" fill="#463640"/>
<path d="M9.033 19.2266C8.76808 19.5469 8.37962 19.8414 8.1875 20.213C8.46182 20.2731 8.66709 20.4741 8.89208 20.6357C9.00764 20.3187 9.43273 20.1552 9.54969 19.8372C9.32188 19.686 9.18707 19.4412 9.033 19.2266Z" fill="#1B1B1E"/>
<path d="M19.8369 20.4478C19.4443 20.6738 18.9919 20.8574 18.5687 21.0115C16.6109 21.725 14.4023 21.9321 12.4153 21.1524C12.2429 21.2144 12.0555 21.7945 11.9926 21.9509C11.9409 22.1741 11.8883 22.5273 11.8047 22.7964C12.0283 22.8058 12.2669 22.5433 12.4623 22.6555C12.9358 22.5235 13.6319 22.408 14.1063 22.5616C14.2144 22.5963 13.8034 22.8523 13.6249 23.0665C13.4468 23.2807 13.1866 23.564 13.0729 23.8298C14.1965 23.9383 15.446 24.3761 16.4117 24.9064C17.377 25.4372 18.2516 26.0107 19.0384 26.6012C19.2545 26.7243 19.5016 26.8746 19.696 27.0239C19.208 27.0592 18.6734 26.6881 18.1459 26.6482C18.5006 27.3015 18.5513 28.0493 18.5217 28.8089C18.7303 28.6849 18.8036 28.4284 19.0384 28.3392C19.0004 29.1485 19.9774 29.2664 20.6824 29.4665C21.3875 29.6666 22.473 29.7061 23.2659 29.7014C24.0588 29.6967 25.0081 29.5581 25.7451 29.3622C26.4816 29.1659 27.1994 28.9024 27.8842 28.636C28.5695 28.3697 29.2126 28.1189 29.8383 27.7717C30.4644 27.4246 31.2733 27.3739 31.58 26.6951C31.2639 26.7928 30.9116 26.8938 30.5969 26.9803C30.2826 27.0672 29.9534 27.1855 29.7274 27.1545C29.5019 27.1235 29.1468 27.3612 28.8664 27.4575C28.586 27.5538 28.3168 27.7219 28.011 27.8234C27.7057 27.9249 27.3539 28.0202 27.027 28.1076C26.7001 28.195 26.3905 28.2819 26.0373 28.3392C25.684 28.3965 25.2416 28.3767 24.863 28.3861C24.4844 28.3955 24.0344 28.3847 23.6887 28.2922C23.3429 28.1992 22.9831 28.2095 22.6586 28.101C22.334 27.9925 22.0258 27.8868 21.7168 27.7746C21.4082 27.6618 21.1249 27.5679 20.8342 27.4359C20.5434 27.3039 20.2644 27.1503 19.9816 27.0202C19.6984 26.8905 19.4776 26.713 19.2122 26.5683C18.9468 26.4241 18.7509 26.224 18.5076 26.0516C18.2638 25.8797 18.0271 25.6885 17.8054 25.4856C17.5837 25.2827 17.3794 25.123 17.1713 24.8984C16.9627 24.6744 16.787 24.4325 16.6104 24.191C16.4333 23.9501 16.3892 23.4569 16.7335 23.4038C17.0778 23.3502 17.3455 23.1436 17.6438 23.0459C17.9416 22.9477 18.169 22.6818 18.4423 22.6231C18.7152 22.5639 18.983 22.1712 19.2263 22.1858C19.123 22.074 19.053 21.9458 18.9914 21.81C18.8266 21.8297 18.6988 21.9505 18.5687 22.0449C18.6189 21.6846 18.9755 21.329 19.3672 21.3873C19.3686 21.5164 19.3419 21.686 19.4612 21.763C19.7529 21.9725 20.1164 21.4742 20.3419 21.2816C20.5678 21.089 20.8323 20.7541 21.0004 20.484C21.1686 20.2139 21.3992 19.8231 21.5749 19.5554C21.5063 19.4764 21.4612 19.3928 21.387 19.3205C21.2268 19.3111 21.077 19.6775 20.9056 19.7315C20.7336 19.785 20.5645 20.0232 20.3889 20.1073C20.2127 20.1909 20.0112 20.3478 19.8369 20.4478Z" fill="#C39B71"/>
<path d="M38.8133 19.6961C38.6991 19.5622 38.5789 19.4316 38.4375 19.3203C38.5577 19.4316 38.6944 19.5773 38.8133 19.6961Z" fill="#C39B71"/>
<path d="M19.4609 21.7624C19.6075 22.0428 19.8447 22.2462 20.1223 22.4162C20.4004 22.5858 20.7391 22.7403 21.0613 22.8395C21.384 22.9386 21.8349 23.048 22.1853 23.0306C22.5357 23.0133 23.1774 23.0701 23.4569 22.94C23.7368 22.8103 24.2934 22.8193 24.393 22.5139C24.3869 22.4923 24.393 22.4435 24.393 22.42C24.393 21.8601 24.3461 21.3016 24.3461 20.729C24.3461 20.7055 24.3357 20.6416 24.3461 20.635C23.4014 20.635 22.221 20.2964 21.5747 19.5547C21.399 19.8224 21.1684 20.2132 21.0002 20.4833C20.8321 20.7534 20.5676 21.0883 20.3417 21.2809C20.1162 21.4735 19.7526 21.9719 19.4609 21.7624Z" fill="#F3E4B7"/>
<path d="M1.33303 24.4437C1.33303 24.438 1.41852 25.091 1.19211 25.1952C1.19211 25.1952 1.19211 25.2187 1.19211 25.2422C1.3086 25.3996 1.20244 25.6542 1.19211 25.8059C1.18553 25.9139 1.22687 26.0107 1.23908 26.0877C1.24237 26.0412 1.23673 25.9938 1.23908 25.9468C1.41382 26.447 1.43731 27.0976 1.84972 27.4969C2.08787 27.285 2.24147 26.9125 2.55431 26.7923C3.12831 28.4058 5.8945 28.906 6.49997 27.0741C6.87058 25.7068 5.33459 24.4597 4.19833 24.1149C5.78834 23.7767 7.70058 25.6715 6.92272 27.262C7.59724 27.0643 8.20929 26.5739 8.61372 25.9938C7.92229 25.3672 8.61044 24.4282 8.3798 23.7382C8.14964 23.0477 7.76447 22.5206 7.14678 22.1059C6.5291 21.6911 5.67467 21.5042 4.94989 21.4375C6.24304 21.0979 7.74521 21.4891 8.42583 22.7057C8.59118 22.7029 8.87489 22.5408 8.97776 22.4121C9.0811 22.2834 9.3991 22.1792 9.45922 22.0481C9.5945 21.1617 8.73679 20.5051 8.05006 20.1692C7.7283 20.0119 7.38775 19.9245 7.01667 19.9343C6.69303 19.9536 6.29611 20.0119 5.98328 19.9813C4.8024 20.1302 4.18847 21.1138 3.31666 21.871C2.44486 22.6282 1.67827 23.337 1.33303 24.4437Z" fill="#624F59"/>
<path d="M18.5703 21.013C18.9935 20.8589 19.4459 20.6753 19.8386 20.4493C19.8353 20.4503 19.6573 20.4014 19.6507 20.4024C19.3129 20.6072 18.9156 20.8364 18.5703 21.013Z" fill="#1B1B1E"/>
<path d="M24.3475 20.7307C24.449 20.9693 24.3677 21.3037 24.3945 21.5762C24.4213 21.8486 24.5002 22.1727 24.3945 22.4217C24.3945 22.4451 24.3884 22.494 24.3945 22.5156C24.4602 22.7477 23.7449 22.936 23.4705 23.0008C23.1958 23.0657 22.4667 23.1803 22.1083 23.1107C21.7499 23.0412 21.2159 22.9947 20.8706 22.8454C20.5249 22.6965 20.1773 22.5574 19.8814 22.3315C19.585 22.1055 19.2956 21.8073 19.2745 21.4352C19.0711 21.4714 18.8067 21.5832 18.7578 21.811C19.1308 21.6776 19.2726 22.1967 19.5681 22.4099C19.8635 22.6232 20.1674 22.8289 20.5066 22.9745C20.8457 23.1201 21.3953 23.2014 21.6231 23.3141C21.6513 23.3202 21.6645 23.3564 21.7171 23.3611C22.0186 23.3315 22.4597 23.3484 22.7819 23.3456C23.1042 23.3428 23.4832 23.1854 23.7688 23.1582C24.0544 23.1305 24.3762 22.7725 24.5824 22.8444C24.6012 22.835 24.6542 22.8505 24.6763 22.8444C24.8271 22.8035 25.0544 23.0201 25.2414 23.0314C25.4279 23.0422 25.7586 23.2667 25.7097 23.2202C25.7553 23.2352 25.783 23.2578 25.8506 23.2672C26.4721 23.2352 27.2621 23.2446 27.8704 23.2202C27.9695 23.2009 28.0719 23.1507 28.1523 23.1262C28.5858 22.9064 29.3162 22.6495 29.8 22.2845C30.2839 21.9195 30.5709 20.9434 31.2055 21.5292C31.1289 21.0327 30.3722 20.8302 29.9842 21.0595C30.0593 21.0426 30.305 21.1234 30.219 21.2004C30.212 21.2215 30.2251 21.2727 30.219 21.2943C30.3228 21.5546 29.8813 21.8843 29.6516 22.0891C29.4219 22.2934 29.0649 22.4973 28.731 22.6246C28.397 22.7523 28.0405 22.921 27.6346 22.9844C27.2283 23.0473 26.7609 23.0924 26.31 23.0426C25.8591 22.9933 25.6176 22.9205 25.1606 22.7364C24.7031 22.5518 24.6979 22.2591 24.7233 21.811C24.72 21.726 24.6843 21.6325 24.6763 21.5762C24.7228 21.6828 24.5885 21.4188 24.6293 21.2474C24.6702 21.0759 24.6115 20.8829 24.6763 20.7307C24.6763 20.7072 24.6866 20.6433 24.6763 20.6367C24.5669 20.6367 24.457 20.6367 24.3475 20.6367C24.3372 20.6433 24.3475 20.7072 24.3475 20.7307Z" fill="#C39B71"/>
<path d="M15.7046 20.6836C15.4697 20.6836 15.2349 20.6836 15 20.6836C15.2184 20.7047 15.4829 20.7052 15.7046 20.6836Z" fill="#624F59"/>
<path d="M24.3946 22.4215C24.5003 22.1725 24.4214 21.8484 24.3946 21.576C24.3679 21.3035 24.4491 20.9691 24.3477 20.7305C24.3477 21.3031 24.3946 21.8616 24.3946 22.4215Z" fill="#624F59"/>
<path d="M24.6759 21.576C24.6383 21.3059 24.6759 21.0034 24.6759 20.7305C24.6111 20.8827 24.6698 21.0757 24.6289 21.2472C24.5881 21.4186 24.7224 21.6826 24.6759 21.576Z" fill="#624F59"/>
<path d="M11.57 20.9183C11.6108 20.8891 11.6104 20.8408 11.6639 20.8243C11.7109 20.9474 11.5545 20.9925 11.57 21.1061C11.5554 21.1245 11.7743 21.0333 11.7109 20.9183C11.9194 20.9793 12.1158 21.0775 12.3215 21.1531C12.1233 21.7144 11.5958 22.2415 11.6639 22.8911C11.7325 23.5412 11.7085 24.3773 11.3459 24.9217C10.9833 25.4661 10.6258 25.8588 10.0354 26.0537C9.44446 26.2487 8.53978 26.0923 8.37913 25.4243C8.21896 24.7564 8.68351 24.0898 8.3392 23.4914C7.99537 22.8925 7.84506 22.4867 7.2626 22.1254C6.68061 21.7638 6.18224 21.5416 5.51054 21.435C6.07232 21.2673 6.81073 21.4725 7.30628 21.706C7.80184 21.9394 8.0879 22.4373 8.42281 22.7032C7.74219 21.4866 6.24001 21.0953 4.94687 21.435C5.67165 21.5017 6.52608 21.6886 7.14376 22.1034C7.76145 22.5181 8.14662 23.0452 8.37678 23.7357C8.60742 24.4257 7.91927 25.3647 8.6107 25.9913C8.20627 26.5714 7.59422 27.0618 6.9197 27.2595C7.69756 25.669 5.78532 23.7742 4.19531 24.1124C5.33157 24.4571 6.86756 25.7043 6.49695 27.0716C6.44152 27.616 5.84545 27.864 5.69842 28.3868C5.82572 28.4244 5.9361 28.175 6.02723 28.2929C6.32926 28.0858 6.58291 27.9364 6.76704 27.5766C6.95164 27.2172 7.47163 27.4126 7.82251 27.2229C8.17386 27.0336 8.4153 26.9129 8.65392 26.5512C8.89207 26.1895 9.40125 26.3313 9.76951 26.2576C10.1382 26.1843 10.4473 25.9199 10.7714 25.7564C10.8705 25.8621 11.0331 26.1181 11.1472 26.0852C11.0984 26.0326 11.0575 25.988 11.0063 25.9443C10.9321 25.8813 10.8081 25.8255 10.8184 25.7094C10.8771 25.6953 10.8987 25.6235 10.9593 25.6155C11.3548 25.1547 11.6282 24.6361 11.8048 24.0654C11.9025 24.1626 11.9655 23.9616 12.0866 24.0184C12.1468 24.0001 12.2407 24.0156 12.2745 23.9245C12.1322 23.9367 11.9753 23.8897 11.8518 23.9715C11.8527 23.6182 11.8781 23.2612 11.7578 22.9381C12.4526 22.7351 13.2304 22.4533 13.9655 22.6093C13.5113 22.9465 13.05 23.4186 12.9321 23.9715C15.2643 24.1049 17.2127 25.4938 19.0855 26.7428C18.9775 26.7748 18.8337 26.6136 18.7567 26.7428C19.0742 26.8241 19.3777 26.9514 19.6962 27.0247C19.5017 26.8753 19.2546 26.725 19.0385 26.6019C17.1211 25.5107 15.3174 23.9574 12.9791 23.9245C13.1938 23.382 13.6264 22.9061 14.1065 22.5623C13.632 22.4087 12.9359 22.5242 12.4624 22.6562C12.2243 22.7225 11.9918 22.8089 11.7578 22.8911C11.7447 22.5543 11.8865 22.257 11.9927 21.9516C12.0556 21.7952 12.2431 21.2151 12.4155 21.1531C12.1637 21.0545 11.8729 20.9023 11.6169 20.7773C11.5822 20.8121 11.5897 20.883 11.57 20.9183ZM6.87273 27.1656C6.78066 27.1172 6.69471 26.9922 6.5909 27.0716C6.80462 25.7376 5.58616 24.669 4.52412 24.1124C5.94315 24.1171 7.56651 25.7418 6.87273 27.1656Z" fill="#1B1B1E" fill-opacity="0.98"/>
<path d="M11.5711 21.1059C11.4856 21.2909 11.2066 22.073 11.0544 22.0453C11.2165 22.205 11.4359 22.3694 11.5711 22.562C11.4889 22.7142 11.5984 23.0806 11.5711 23.3605C11.5876 24.1905 11.2729 24.851 10.6434 25.439C10.014 26.0267 9.05202 25.812 8.79978 24.9576C8.65745 24.4761 8.96136 23.8298 8.94116 23.314C8.92049 22.7983 9.38458 22.5225 9.45739 22.0453C9.39726 22.1764 9.07926 22.2806 8.97592 22.4093C8.87305 22.538 8.58934 22.7001 8.424 22.7029C8.08909 22.4371 7.80302 21.9391 7.30747 21.7057C6.81191 21.4722 6.07351 21.267 5.51172 21.4347C6.18342 21.5413 6.6818 21.7635 7.26378 22.1252C7.84624 22.4864 7.99655 22.8922 8.34039 23.4911C8.68469 24.0895 8.22014 24.7561 8.38031 25.424C8.54096 26.092 9.44564 26.2484 10.0366 26.0534C10.627 25.8585 10.9845 25.4658 11.3471 24.9214C11.7097 24.377 11.7337 23.5409 11.6651 22.8908C11.597 22.2412 12.1245 21.7141 12.3227 21.1528C12.117 21.0772 11.9206 20.979 11.7121 20.918C11.7755 21.0331 11.5566 21.1242 11.5711 21.1059Z" fill="#463640" fill-opacity="0.99"/>
<path d="M30.2191 21.2023C30.3051 21.1253 30.0594 21.0445 29.9843 21.0614C30.3723 20.8322 31.129 21.0347 31.2055 21.5312C30.5709 20.9454 30.2839 21.9215 29.8001 22.2865C29.3163 22.6514 28.5859 22.9084 28.1523 23.1282C29.1106 22.8825 30.1576 22.3433 30.5949 21.3902C30.8786 21.34 31.0839 21.533 31.2995 21.6721C31.2783 20.9717 30.3164 20.7195 29.7964 21.0614C29.887 21.1657 30.1247 21.0666 30.2191 21.2023Z" fill="#624F59"/>
<path d="M24.7231 21.8097C24.6978 22.2578 24.7029 22.5504 25.1604 22.735C25.6175 22.9191 25.8589 22.992 26.3098 23.0413C26.7608 23.0911 27.2281 23.046 27.6345 22.983C28.0403 22.9196 28.3968 22.751 28.7308 22.6232C29.0648 22.4959 29.4217 22.2921 29.6514 22.0877C29.8811 21.8829 30.3227 21.5532 30.2189 21.293C30.1122 21.6805 29.7571 21.9478 29.4311 22.1962C29.1047 22.4447 28.7087 22.58 28.2939 22.75C27.8797 22.9201 27.3925 22.9666 26.8838 22.984C26.3751 23.0013 25.8965 22.9671 25.3915 22.7853C24.8866 22.6035 24.7452 22.3574 24.7231 21.8097Z" fill="#624F59"/>
<path d="M19.2279 22.1876C19.8832 22.8965 20.7376 23.1233 21.6235 23.315C21.3957 23.2022 20.8461 23.121 20.507 22.9754C20.1678 22.8298 19.8639 22.624 19.5685 22.4108C19.273 22.1975 19.1312 21.6785 18.7582 21.8119C18.8071 21.584 19.0715 21.4723 19.2749 21.4361C19.296 21.8081 19.5854 22.1064 19.8818 22.3323C20.1777 22.5583 20.5253 22.6973 20.871 22.8462C21.2163 22.9956 21.7503 23.0421 22.1087 23.1116C22.4671 23.1811 23.1961 23.0665 23.4709 23.0017C23.7452 22.9368 24.4606 22.7485 24.3949 22.5164C24.2953 22.8218 23.7387 22.8128 23.4587 22.9425C23.1792 23.0726 22.5376 23.0158 22.1872 23.0331C21.8368 23.0505 21.3858 22.9411 21.0631 22.842C20.7409 22.7429 20.4022 22.5883 20.1242 22.4187C19.8465 22.2487 19.6093 22.0453 19.4628 21.7649C19.3435 21.6879 19.3702 21.5183 19.3688 21.3891C18.9771 21.3309 18.6206 21.6864 18.5703 22.0467C18.7004 21.9523 18.8282 21.8316 18.9931 21.8119C19.0546 21.9476 19.1246 22.0758 19.2279 22.1876Z" fill="#624F59"/>
<path d="M8.79796 24.9602C9.0502 25.8147 10.0122 26.0293 10.6416 25.4417C11.271 24.8536 11.5858 24.1932 11.5693 23.3632C11.5595 22.8695 11.3331 22.4031 10.9624 22.0912C10.5923 21.7793 9.93469 21.9094 9.6552 22.2476C9.37572 22.5858 8.91257 22.9249 8.98585 23.4102C9.05912 23.8954 8.71576 24.4534 8.79796 24.9602Z" fill="#624F59"/>
<path d="M12.4632 22.6577C12.2678 22.5454 12.0292 22.808 11.8056 22.7986C11.8892 22.5295 11.9419 22.1762 11.9935 21.9531C11.8874 22.2584 11.7455 22.5558 11.7587 22.8926C11.9926 22.8104 12.2251 22.7239 12.4632 22.6577Z" fill="#F3E4B7"/>
<path d="M41.5859 22.8449C41.6155 22.6617 41.6038 22.464 41.5859 22.2812C41.5859 22.4682 41.5963 22.6584 41.5859 22.8449Z" fill="#624F59" fill-opacity="0.05"/>
<path d="M14.1078 22.5625C13.6277 22.9063 13.1951 23.3822 12.9805 23.9247C15.3187 23.9576 17.1225 25.5109 19.0399 26.6021C18.2531 26.0117 17.3785 25.4381 16.4132 24.9074C15.4475 24.377 14.198 23.9393 13.0744 23.8308C13.1881 23.5649 13.4483 23.2816 13.6263 23.0675C13.8048 22.8533 14.2158 22.5973 14.1078 22.5625Z" fill="#F3E4B7"/>
<path d="M12.0866 24.0207C12.2618 24.0771 11.8832 24.6769 12.1303 24.8695C12.3769 25.0626 12.7795 25.1255 13.12 25.0541C13.4606 24.9827 13.819 24.9837 14.1182 25.1363C14.4169 25.2895 14.7692 25.2904 15.0928 25.3829C15.09 25.692 15.6072 25.3646 15.7505 25.8057C14.6612 26.1683 13.5507 26.5991 12.5563 27.1679C12.7175 27.2661 13.0721 26.8607 13.3394 26.9955C13.6066 27.1303 14.0548 26.9776 14.3413 27.0739C14.6278 27.1698 14.9468 27.1815 15.2342 27.2614C15.5217 27.3412 15.8308 27.4281 16.1112 27.5117C16.3912 27.5953 16.6415 27.6996 16.9097 27.7936C17.1775 27.8875 17.4076 28.0059 17.6618 28.1219C17.9163 28.2374 18.1085 28.4155 18.3339 28.5771C18.3626 28.4282 18.2752 28.2177 18.3809 28.1073C18.3757 27.8518 18.2757 27.4826 18.2433 27.2585C18.2113 27.034 17.9304 26.7141 18.0521 26.5572C18.0521 26.5572 18.0403 26.5225 18.0521 26.5103C18.17 26.3867 18.6364 26.6554 18.6627 26.6982C18.69 26.7076 18.7139 26.7343 18.7567 26.7451C18.8337 26.616 18.9774 26.7771 19.0855 26.7451C17.2127 25.4961 15.2643 24.1072 12.9321 23.9738C13.05 23.4209 13.5113 22.9488 13.9655 22.6116C13.2304 22.4556 12.4525 22.7375 11.7578 22.9404C11.8781 23.2636 11.8527 23.6205 11.8518 23.9738C11.9753 23.892 12.1322 23.939 12.2745 23.9268C12.2407 24.0179 12.1467 24.0024 12.0866 24.0207Z" fill="#463640" fill-opacity="0.98"/>
<path d="M21.7188 23.3621C22.7996 23.4594 23.6498 23.3034 24.5841 22.8455C24.3778 22.7736 24.0561 23.1315 23.7705 23.1592C23.4849 23.1865 23.1058 23.3438 22.7836 23.3466C22.4614 23.3495 22.0203 23.3326 21.7188 23.3621Z" fill="#624F59"/>
<path d="M24.6758 22.845C25.0238 22.9854 25.3522 23.1043 25.7092 23.2207C25.758 23.2673 25.4273 23.0427 25.2409 23.0319C25.0539 23.0206 24.8266 22.8041 24.6758 22.845Z" fill="#624F59"/>
<path d="M25.8516 23.2657C26.5049 23.355 27.233 23.3442 27.8714 23.2188C27.2631 23.2432 26.473 23.2338 25.8516 23.2657Z" fill="#624F59"/>
<path d="M39.2387 23.5508C39.2204 23.4888 39.2006 23.4038 39.2856 23.3629C39.2142 23.3193 39.1367 23.3052 39.0508 23.316C39.0898 23.4132 39.1781 23.4771 39.2387 23.5508Z" fill="#624F59" fill-opacity="0.1"/>
<path d="M40.2702 23.4063C40.1781 23.3885 40.064 23.3617 39.9414 23.3594C40.0147 23.3664 40.1664 23.3955 40.2702 23.4063Z" fill="#624F59" fill-opacity="0.18"/>
<path d="M41.2115 23.5039C41.1274 23.5185 41.0152 23.51 40.9297 23.5039C41.0086 23.5241 41.0495 23.5715 41.2115 23.5039Z" fill="#624F59" fill-opacity="0.05"/>
<path d="M31.9107 30.1264C31.976 30.0611 31.611 29.6628 31.5387 29.465C31.4659 29.2678 31.3043 28.8596 31.3001 28.5763C31.2959 28.2931 31.2174 27.8384 31.3471 27.5429C31.4701 27.6237 31.3165 27.7604 31.3471 27.8717C32.2931 27.4513 33.3063 27.0911 34.3636 27.0366C35.421 26.9821 36.6535 27.0666 37.4065 27.8717C37.1923 27.4429 36.8151 27.2019 36.5257 26.8736C36.2359 26.5457 35.6817 26.3235 35.6215 25.9459C35.3956 26.1061 35.0767 25.7697 34.87 25.6171C35.4252 25.5053 36.0509 24.9895 36.561 25.1474C36.5281 24.9698 36.7648 24.9416 36.8898 24.9125C35.8066 25.0684 34.7267 25.6471 33.6027 25.8998C32.4791 26.153 31.4062 26.7237 30.2667 26.9323C30.5265 26.7214 30.8614 26.5847 31.1554 26.4118C31.4499 26.2395 31.7491 26.1159 32.0479 25.9421C32.3471 25.7688 32.6712 25.6298 32.9803 25.4654C33.2894 25.301 33.582 25.1793 33.8981 25.021C34.2138 24.8622 34.5609 24.7486 34.8845 24.5982C35.2077 24.4479 35.5652 24.3958 35.893 24.2445C36.2209 24.0928 36.6953 24.1069 37.0204 23.9627C37.3449 23.8185 37.9485 23.9749 38.205 23.7852C35.0654 23.8697 32.4744 25.7787 29.75 27.0732C30.3818 27.0812 31.069 26.7284 31.7228 26.6035C30.9807 27.6345 31.0291 29.2039 31.9107 30.1264Z" fill="#463640" fill-opacity="0.98"/>
<path d="M10.962 25.6152C10.9245 25.6767 10.8587 25.7232 10.8681 25.8031C10.9245 25.8345 10.9893 25.8801 11.009 25.944C11.0602 25.9877 11.1011 26.0323 11.1499 26.0849C11.1936 26.1314 11.2425 26.1803 11.2908 26.2258C11.5191 26.44 11.8301 26.6631 11.9954 26.9304C12.0048 26.9454 12.0274 26.968 12.0424 26.9774C12.1504 27.0441 12.2378 27.2122 12.3712 27.2122C12.4243 27.1986 12.46 27.1845 12.5121 27.1653C12.5328 27.1578 12.5591 27.1653 12.5591 27.1653C13.5535 26.5964 14.6639 26.1657 15.7532 25.8031C15.6099 25.362 15.0928 25.6894 15.0956 25.3803C14.772 25.2878 14.4197 25.2868 14.1209 25.1337C13.8217 24.9811 13.4633 24.9801 13.1228 25.0515C12.7822 25.1229 12.3797 25.06 12.1331 24.8669C11.886 24.6743 12.2646 24.0745 12.0894 24.0181C11.9682 23.9613 11.9052 24.1623 11.8075 24.0651C11.6309 24.6358 11.3575 25.1544 10.962 25.6152ZM13.7334 25.0515C13.3426 24.9947 13.4464 25.1882 13.7334 25.0515V25.0515Z" fill="#000002" fill-opacity="0.01"/>
<path d="M6.87205 27.1665C7.56583 25.7427 5.94247 24.118 4.52344 24.1133C5.58548 24.6699 6.80394 25.7385 6.59022 27.0725C6.69402 26.9931 6.77998 27.1181 6.87205 27.1665Z" fill="#463640"/>
<path d="M39.2857 24.7228C39.2237 24.7176 39.0997 24.6786 39.0039 24.6758C39.073 24.6838 39.1829 24.7232 39.2857 24.7228Z" fill="#624F59" fill-opacity="0.14"/>
<path d="M13.7322 25.0537C13.3414 24.9969 13.4452 25.1904 13.7322 25.0537V25.0537Z" fill="#463640" fill-opacity="0.22"/>
<path d="M11.0088 25.946C10.9891 25.8821 10.9243 25.8365 10.8679 25.8051C10.8585 25.7252 10.9243 25.6787 10.9618 25.6172C10.9012 25.6252 10.8796 25.697 10.8209 25.7111C10.8106 25.8272 10.9346 25.8831 11.0088 25.946Z" fill="#624F59" fill-opacity="0.05"/>
<path d="M6.02795 28.2943C5.75175 28.4836 5.44033 28.7429 5.2623 29.0318C5.08428 29.3202 4.67703 29.5363 4.56007 29.8327C4.44311 30.129 3.86159 30.378 3.86723 30.6899C3.9189 30.6462 4.14436 31.0431 4.23126 31.1244C4.31863 31.2057 4.40036 31.479 4.56007 31.5941C4.71977 31.7087 4.75125 31.8553 4.91236 32.0403C5.07348 32.2259 5.06878 32.271 5.29049 32.5077C5.5122 32.7445 5.85697 33.0761 6.08667 33.3086C6.31636 33.5411 6.33139 33.5111 6.5329 33.7079C6.73488 33.9047 6.76166 33.868 6.9782 34.0611C7.19474 34.2542 7.121 34.2152 7.42303 34.4148C7.72459 34.6144 8.09708 34.9818 8.47051 35.0113C8.84441 35.0405 8.93929 34.9987 9.26904 35.0113C9.59878 35.0245 9.73876 35.0062 10.0676 35.0113C10.3964 35.0165 10.5518 35.009 10.9131 35.0113C11.2743 35.0137 11.2489 35.0109 11.7116 35.0113C12.1743 35.0118 12.8469 35.0113 13.3086 35.0113C13.7704 35.0113 13.7915 35.0123 14.1541 35.0113C14.5168 35.0104 14.6427 35.0137 14.9527 35.0113C15.2627 35.009 15.4647 35.017 15.7512 35.0113C16.0377 35.0057 16.3229 35.0226 16.5967 35.0113C16.8706 35.0001 17.1364 35.0381 17.3952 35.0113C17.654 34.9846 17.9551 35.0715 18.1938 35.0113C18.4324 34.9512 18.8401 35.1363 19.0393 35.0113C18.3929 34.9024 17.654 34.9954 16.9725 34.9644C16.941 33.876 17.035 32.7261 16.9255 31.6763C16.7775 32.3598 16.4196 32.8145 16.4098 33.5561C16.4004 34.2983 15.6671 34.3495 15.0363 34.5783C14.405 34.8065 13.7018 34.9944 12.9798 34.9644C12.2579 34.9343 11.2945 34.9658 10.5843 34.9644C9.87404 34.963 9.2385 34.7568 8.65464 34.4514C8.07124 34.1456 7.66306 33.9507 7.14448 33.566C6.62591 33.1813 6.38823 32.8572 5.99178 32.3231C5.59534 31.789 6.16041 31.2761 6.55639 30.8426C6.9519 30.409 7.22621 29.936 7.52026 29.4108C7.81431 28.8857 7.98059 28.1402 8.09473 27.5428C9.1765 27.3802 10.4574 27.167 11.1479 26.2275C11.8661 26.8974 12.5825 27.6207 13.2147 28.3413C13.0386 27.997 12.8723 27.4779 12.4631 27.3549C12.4458 27.2825 12.5303 27.2421 12.5101 27.167C12.458 27.1862 12.4223 27.2003 12.3692 27.214C12.232 27.2497 12.1395 27.1064 12.0404 26.9791C12.0254 26.9697 12.0028 26.9471 11.9934 26.9321C11.7346 26.7306 11.5054 26.4676 11.2888 26.2275C11.2405 26.182 11.1916 26.1331 11.1479 26.0866C11.0338 26.1195 10.8713 25.8635 10.7721 25.7578C10.448 25.9213 10.139 26.1857 9.77023 26.259C9.40197 26.3328 8.89279 26.1909 8.65464 26.5526C8.41602 26.9143 8.17458 27.035 7.82323 27.2243C7.47235 27.4141 6.95236 27.2186 6.76776 27.578C6.58363 27.9378 6.32998 28.0872 6.02795 28.2943Z" fill="#463640"/>
<path d="M19.0379 35.0104C19.0614 34.9958 19.1313 34.8375 19.1318 34.8225C19.1248 34.7981 19.0872 34.7384 19.0848 34.7285C18.8918 34.5768 18.9341 34 18.897 33.6482C18.8598 33.2964 18.9796 32.7646 19.0848 32.4269C18.8307 32.6091 18.6804 33.0746 18.4742 33.1785C18.4728 33.1799 18.384 33.2259 18.3803 33.2254C18.1825 33.1987 18.3164 32.5706 18.2863 32.3799C18.2562 32.1892 18.3446 31.7557 18.3803 31.5344C18.4155 31.3132 18.5479 31.0506 18.6048 30.8195C18.6611 30.5879 18.8115 30.3446 18.897 30.1253C18.7001 30.253 18.4136 30.4475 18.1924 30.3131C18.1816 30.2972 18.1933 30.2427 18.1924 30.2192C18.1426 30.2432 18.1585 30.3009 18.0984 30.3131C18.2168 29.5846 18.4324 28.8781 18.3803 28.1055C18.2746 28.2158 18.3619 28.4263 18.3333 28.5752C18.1078 28.4136 17.9157 28.2356 17.6611 28.12C17.407 28.004 17.1768 27.8856 16.9091 27.7917C16.6409 27.6977 16.3905 27.5935 16.1106 27.5098C15.8301 27.4262 15.5211 27.3393 15.2336 27.2595C14.9461 27.1796 14.6272 27.1679 14.3406 27.0721C14.0541 26.9758 13.606 27.1284 13.3387 26.9936C13.0715 26.8588 12.7168 27.2642 12.5557 27.166C12.5557 27.166 12.5294 27.1585 12.5087 27.166C12.5289 27.2412 12.4444 27.2816 12.4618 27.3539C12.8709 27.477 13.0372 27.996 13.2133 28.3403C12.5811 27.6198 11.8647 26.8964 11.1465 26.2266C10.456 27.166 9.17511 27.3793 8.09334 27.5418C7.97919 28.1393 7.81291 28.8847 7.51887 29.4099C7.22482 29.935 6.9505 30.408 6.55499 30.8416C6.15902 31.2751 5.59394 31.7881 5.99039 32.3222C6.38683 32.8562 6.62451 33.1803 7.14309 33.565C7.66166 33.9497 8.06985 34.1447 8.65324 34.4505C9.23711 34.7558 9.87264 34.962 10.5829 34.9634C11.2931 34.9648 12.2565 34.9333 12.9784 34.9634C13.7004 34.9935 14.4036 34.8056 15.0349 34.5773C15.6657 34.3485 16.399 34.2973 16.4084 33.5552C16.4182 32.8135 16.7762 32.3588 16.9241 31.6753C17.0336 32.7252 16.9396 33.8751 16.9711 34.9634C17.6527 34.9944 18.3915 34.9014 19.0379 35.0104Z" fill="#624F59"/>
<path d="M11.9936 26.9311C11.8283 26.6639 11.5173 26.4408 11.2891 26.2266C11.5056 26.4666 11.7348 26.7296 11.9936 26.9311Z" fill="#624F59" fill-opacity="0.05"/>
<path d="M18.0547 26.5088C18.2567 26.5764 18.4671 26.629 18.6653 26.6967C18.639 26.6539 18.1726 26.3852 18.0547 26.5088Z" fill="#1B1B1E"/>
<path d="M18.3826 28.1048C18.4348 28.8775 18.2192 29.5839 18.1008 30.3125C18.1609 30.3003 18.1449 30.2425 18.1947 30.2185C18.1722 29.6239 18.4296 29.0564 18.4296 28.4336C18.4296 28.3082 18.4296 28.1832 18.4296 28.0578C18.4296 27.4974 18.2586 27.0521 18.0538 26.5547C17.9322 26.7116 18.2131 27.0315 18.245 27.256C18.2774 27.48 18.3775 27.8492 18.3826 28.1048Z" fill="#1B1B1E"/>
<path d="M1.84783 27.4936C1.7971 27.5387 1.77361 27.5275 1.70691 27.5876C1.48427 27.7778 1.36073 28.1545 1.0493 28.1982C1.08547 28.5026 0.948782 28.3579 0.763711 28.6642C0.57864 28.9705 0.211787 29.2119 0.0525513 29.5501C-0.107154 29.8878 0.127707 30.3139 0.348477 30.5901C0.569716 30.8658 0.794713 31.087 1.11037 31.3313C1.42649 31.5751 1.71114 31.7277 2.07236 31.8724C2.43357 32.0175 2.92349 31.7752 3.15131 31.5215C3.37913 31.2674 3.37725 31.289 3.5036 31.0753C3.62949 30.8616 3.8573 30.8691 3.91461 30.7817C3.89958 30.7521 3.86811 30.7225 3.86764 30.6878C3.862 30.3759 4.44352 30.1269 4.56048 29.8305C4.67744 29.5341 5.08469 29.318 5.26271 29.0296C5.44074 28.7408 5.75216 28.4815 6.02836 28.2922C5.93723 28.1743 5.82685 28.4237 5.69955 28.3861C5.84658 27.8633 6.44266 27.6153 6.49808 27.0709C5.89261 28.9028 3.12641 28.4026 2.55241 26.7891C2.23958 26.9093 2.08598 27.2818 1.84783 27.4936ZM2.78728 28.9968C2.27246 29.4453 1.90044 30.0978 1.37811 30.4999C1.23719 30.3153 1.0291 30.1908 0.861413 30.0301C0.995284 29.754 1.22639 29.5294 1.43682 29.2903C1.64726 29.0508 1.84783 28.8385 2.04981 28.5881C2.25179 28.3382 2.6891 28.7962 2.78728 28.9968Z" fill="#000002" fill-opacity="0.99"/>
<path d="M12.3679 27.2114C12.2345 27.2114 12.1471 27.0433 12.0391 26.9766C12.1382 27.1039 12.2307 27.2471 12.3679 27.2114Z" fill="#624F59" fill-opacity="0.06"/>
<path d="M31.9091 30.1264C31.8264 30.2091 31.6968 30.1617 31.5803 30.1734C31.3708 30.1946 31.1378 30.2035 30.9227 30.0795C31.049 30.3247 31.0983 30.576 31.2035 30.832C31.3088 31.088 31.3468 31.405 31.3924 31.6765C31.4375 31.948 31.46 32.3802 31.4027 32.6263C31.3454 32.8724 31.336 33.3769 31.1575 33.2736C31.1439 33.2853 31.1105 33.2736 31.1105 33.2736C31.0185 33.3361 30.7005 32.7109 30.5938 32.616C30.6789 33.3267 30.8001 34.2699 30.5469 35.0116C31.2482 35.0449 31.9199 34.9627 32.6137 34.9646C32.5343 34.4488 32.3844 33.857 32.4258 33.3675C32.7175 33.8823 33.0228 34.3929 33.1773 34.9646C35.6016 34.9284 37.9924 35.0247 40.411 35.0116C40.0404 32.4586 38.9305 29.9578 37.4518 27.9187C37.4391 27.9094 37.4199 27.8812 37.4048 27.8718C36.6519 27.0667 35.4193 26.9821 34.362 27.0366C33.3046 27.0911 32.2914 27.4514 31.3454 27.8718C31.3149 27.7605 31.4685 27.6238 31.3454 27.543C31.2158 27.8384 31.2942 28.2931 31.2984 28.5764C31.3027 28.8596 31.4642 29.2678 31.5371 29.4651C31.6094 29.6628 31.9744 30.0612 31.9091 30.1264Z" fill="#624F59"/>
<path d="M31.1099 33.2728C30.9098 32.897 30.6251 32.5729 30.3583 32.2394C30.2536 32.3442 30.55 32.7942 30.5566 33.0276C30.5631 33.2606 30.6923 33.728 30.6402 34.0244C30.5876 34.3208 30.5847 34.6716 30.4992 34.9638C30.4899 34.9967 30.4269 35.0465 30.4992 35.0577C30.4992 35.0577 30.5227 35.0577 30.5462 35.0577C30.922 35.0577 31.2978 35.0577 31.6736 35.0577C31.697 35.0577 31.744 35.0577 31.7675 35.0577C31.8614 35.0577 31.9554 35.0577 32.0493 35.0577C32.0728 35.0577 32.1198 35.0577 32.1433 35.0577C32.5003 35.0577 32.8681 35.0314 33.2236 35.0577C33.3782 35.069 33.4853 35.07 33.6464 35.0577C33.7525 35.0498 33.8686 35.0516 33.9752 35.0577C34.2758 35.0751 34.544 35.07 34.8677 35.0577C35.1584 35.0465 35.4703 35.0343 35.7601 35.0577C36.1509 35.0892 36.616 35.0883 37.0284 35.0577C37.1933 35.0455 37.3694 35.0911 37.4981 35.1047C37.5766 35.1047 37.6545 35.1047 37.733 35.1047C37.834 35.0939 37.9753 35.0526 38.1087 35.0577C38.8049 35.1789 39.1534 34.9347 39.9407 35.0577C40.7279 35.1808 40.3963 34.3372 40.2662 33.7928C40.1356 33.2484 39.9905 32.7101 39.796 32.1962C39.602 31.6823 39.4061 31.1877 39.1854 30.6931C38.9651 30.198 38.7668 29.8377 38.5198 29.3859C38.2727 28.934 37.9157 28.6249 37.8269 28.1998C37.6649 28.2651 37.5756 28.0114 37.4511 27.918C38.9298 29.957 40.0398 32.4578 40.4104 35.0108C37.9918 35.0239 35.6009 34.9276 33.1767 34.9638C33.0221 34.3922 32.7168 33.8816 32.4251 33.3667C32.3838 33.8562 32.5336 34.448 32.613 34.9638C31.9192 34.9619 31.2475 35.0441 30.5462 35.0108C30.7994 34.2691 30.6782 33.3259 30.5932 32.6152C30.6998 32.7101 31.0178 33.3353 31.1099 33.2728Z" fill="#463640" fill-opacity="0.88"/>
<path d="M18.4297 28.4344C18.441 28.3193 18.441 28.1765 18.4297 28.0586C18.4297 28.184 18.4297 28.309 18.4297 28.4344Z" fill="#624F59"/>
<path d="M2.78914 28.997C2.69097 28.7965 2.25366 28.3385 2.05168 28.5884C1.8497 28.8387 1.64913 29.0511 1.43869 29.2906C1.22826 29.5297 0.997152 29.7542 0.863281 30.0304C1.03097 30.1911 1.23906 30.3155 1.37998 30.5002C1.90231 30.0981 2.27433 29.4456 2.78914 28.997Z" fill="#1B1B1E"/>
<path d="M18.1953 30.3134C18.4166 30.4477 18.7031 30.2533 18.8999 30.1255C18.8144 30.3448 18.6641 30.5882 18.6077 30.8197C18.5509 31.0508 18.4184 31.3134 18.3832 31.5347C18.3475 31.7559 18.2592 32.1894 18.2893 32.3802C18.3193 32.5709 18.1854 33.1989 18.3832 33.2257C18.2103 32.0513 18.5504 30.8921 19.0878 29.8906C18.8727 30.017 18.4931 30.4548 18.1953 30.3134Z" fill="#1B1B1E"/>
<path d="M31.345 31.7225C31.3478 31.785 31.345 31.848 31.345 31.9104C31.3704 32.096 31.3699 32.2914 31.345 32.4741C31.345 32.5366 31.345 32.5995 31.345 32.662C31.345 32.6855 31.3502 32.7339 31.345 32.7559C31.3088 32.9109 31.283 33.1674 31.1571 33.2726C31.3356 33.376 31.345 32.8715 31.4023 32.6253C31.4596 32.3792 31.4371 31.9471 31.392 31.6756C31.3464 31.4041 31.3084 31.087 31.2032 30.831C31.0979 30.575 31.0486 30.3237 30.9223 30.0785C31.1374 30.2025 31.3704 30.1936 31.5799 30.1725C31.2769 30.1513 30.989 30.0475 30.7344 29.8906C31.011 30.459 31.3168 31.0715 31.345 31.7225Z" fill="#1B1B1E"/>
<path d="M21.4836 33.2708C20.5859 32.7837 20.2289 31.6991 20.0744 30.7812C19.4652 31.8724 20.2689 33.5888 21.5775 33.4587C21.9575 34.1365 22.8152 34.7955 23.5973 34.4451C23.2206 34.3079 22.8899 34.1304 22.5757 33.8697C22.2614 33.6094 22.082 33.2971 21.8955 32.9528C21.709 32.6085 21.6334 32.1035 21.4836 31.8146C21.3624 32.2707 21.2172 32.8283 21.4836 33.2708Z" fill="#C39B71"/>
<path d="M31.347 32.6621C31.347 32.5996 31.347 32.5367 31.347 32.4742C31.347 32.2863 31.347 32.0984 31.347 31.9105C31.347 31.8481 31.3498 31.7851 31.347 31.7227C31.339 31.9937 31.2295 32.3854 31.347 32.6621Z" fill="#EFF4F3"/>
<path d="M31.3477 32.4738C31.3726 32.2911 31.373 32.0957 31.3477 31.9102C31.3477 32.098 31.3477 32.2859 31.3477 32.4738Z" fill="#C39B71"/>
<path d="M19.323 32.0979C19.3418 32.0886 19.37 32.0979 19.37 32.0979C19.4705 32.1957 19.0689 32.6494 19.0914 32.8998C19.1144 33.1506 19.028 33.7279 19.0567 34.0083C19.0853 34.2887 19.2751 34.7326 19.1821 34.9633C19.1858 34.9863 19.1708 35.0426 19.1821 35.0572C19.3657 35.0614 19.7274 35.0159 19.8867 35.0572C19.5438 34.0868 19.253 33.0083 19.5109 31.957C19.4418 31.9904 19.3775 32.0547 19.323 32.0979Z" fill="#C39B71" fill-opacity="0.99"/>
<path d="M29.8438 35.0572C30.0147 35.0675 30.3929 35.138 30.5014 35.0572C30.429 35.0459 30.492 34.9961 30.5014 34.9633C30.4567 34.4715 30.6944 33.7547 30.5474 33.2262C30.4004 32.6983 30.3886 32.2732 30.0316 31.957C30.2134 32.9815 30.1467 34.0853 29.8438 35.0572Z" fill="#C39B71" fill-opacity="0.99"/>
<path d="M18.4766 33.1783C18.6828 33.0745 18.8331 32.609 19.0872 32.4267C18.982 32.7645 18.8622 33.2962 18.8993 33.648C18.9364 33.9998 18.8941 34.5767 19.0872 34.7284C18.8678 33.8537 18.9378 32.8603 19.369 32.0979C19.369 32.0979 19.3409 32.0885 19.3221 32.0979C18.9017 32.3037 18.7622 32.8669 18.4766 33.1783Z" fill="#463640"/>
<path d="M19.0859 34.7281C19.0883 34.738 19.1258 34.7976 19.1329 34.822C19.1451 34.8648 19.1728 34.9226 19.1799 34.963C19.2729 34.7323 19.0831 34.2884 19.0544 34.008C19.0258 33.7276 19.1122 33.1503 19.0892 32.8995C19.0666 32.6491 19.4683 32.1954 19.3677 32.0977C18.9365 32.86 18.8665 33.8535 19.0859 34.7281Z" fill="#F3E4B7"/>
<path d="M30.3594 32.2381C30.6262 32.5716 30.9108 32.8957 31.1109 33.2715C31.1109 33.2715 31.1443 33.2832 31.1579 33.2715C31.2838 33.1663 31.3096 32.9098 31.3458 32.7548C31.1541 32.6839 31.2782 33.1043 31.1109 33.1775C31.0442 33.0432 30.8507 32.7369 30.7704 32.6256C30.6905 32.5143 30.4218 32.1756 30.3594 32.2381Z" fill="#EFF4F3"/>
<path d="M5.79375 33.1297C5.67913 32.9972 5.54245 32.8784 5.41797 32.7539C5.53211 32.8873 5.66833 33.0052 5.79375 33.1297Z" fill="#463640" fill-opacity="0.05"/>
<path d="M24.5841 33.4141C24.2403 34.1774 25.2681 35.0684 25.9463 34.5414C25.3596 34.4118 24.85 33.9557 24.5841 33.4141Z" fill="#C39B71"/>
<path d="M11.8041 35.057C11.2799 35.0565 10.7289 35.0081 10.207 35.057C10.417 35.0574 10.7604 35.1589 11.0056 35.1039C11.2508 35.049 11.6063 35.2035 11.8041 35.057Z" fill="#624F59" fill-opacity="0.02"/>
<path d="M12.1804 35.0586C12.0709 35.0586 11.961 35.0586 11.8516 35.0586C11.9427 35.1262 12.0874 35.1272 12.1804 35.0586Z" fill="#624F59" fill-opacity="0.02"/>
<path d="M12.7941 35.0558C12.6077 35.0445 12.4169 35.0558 12.2305 35.0558C12.3888 35.1728 12.6368 35.0642 12.7941 35.0558Z" fill="#624F59" fill-opacity="0.02"/>
<path d="M13.6846 35.0584C13.5286 35.0584 13.3703 35.05 13.2148 35.0584C13.3661 35.066 13.5188 35.1289 13.6846 35.0584Z" fill="#624F59" fill-opacity="0.01"/>
<path d="M14.0592 35.0564C13.9657 35.0526 13.8713 35.0564 13.7773 35.0564C13.8976 35.1137 13.9521 35.062 14.0592 35.0564Z" fill="#624F59" fill-opacity="0.01"/>
<path d="M17.6777 35.056C16.7641 35.0062 15.7716 34.9884 14.8594 35.056C15.7565 35.0804 16.7768 35.0945 17.6777 35.056Z" fill="#624F59" fill-opacity="0.02"/>
<path d="M31.6742 35.0586C31.2984 35.0586 30.9227 35.0586 30.5469 35.0586C30.7291 35.1934 31.4741 35.1436 31.6742 35.0586Z" fill="#C39B71" fill-opacity="0.02"/>
<path d="M32.0514 35.0586C31.9574 35.0586 31.8635 35.0586 31.7695 35.0586C31.879 35.1107 31.94 35.1117 32.0514 35.0586Z" fill="#624F59" fill-opacity="0.02"/>
<path d="M33.2249 35.0586C32.8693 35.0323 32.5015 35.0586 32.1445 35.0586C32.4517 35.1896 32.9139 35.067 33.2249 35.0586Z" fill="#624F59" fill-opacity="0.03"/>
<path d="M33.9772 35.0561C33.8706 35.05 33.7546 35.0481 33.6484 35.0561C33.7222 35.0575 33.8983 35.0598 33.9772 35.0561Z" fill="#624F59" fill-opacity="0.02"/>
<path d="M35.7636 35.0564C35.4737 35.0329 35.1619 35.0451 34.8711 35.0564C35.1365 35.0719 35.4963 35.0658 35.7636 35.0564Z" fill="#624F59" fill-opacity="0.02"/>
<path d="M37.501 35.1037C37.3723 35.0901 37.1961 35.0445 37.0312 35.0567C37.1468 35.06 37.3483 35.1037 37.501 35.1037Z" fill="#624F59" fill-opacity="0.01"/>
<path d="M37.7344 35.106C37.8617 35.106 38.0157 35.0656 38.1102 35.059C37.9768 35.0539 37.8354 35.0952 37.7344 35.106Z" fill="#624F59" fill-opacity="0.01"/>
</svg>
