<svg width="24" height="24" viewBox="0 0 24 24" fill="none" xmlns="http://www.w3.org/2000/svg">
<path d="M19.57 17.17C19.4106 17.0106 19.3797 16.7652 19.48 16.5633C19.7867 15.9466 20 15.2588 20 14.5C20 12 18 10 15.5 10C13 10 11 12 11 14.5C11 17 13 19 15.5 19C16.2588 19 16.9466 18.7867 17.5633 18.48C17.7652 18.3797 18.0106 18.4106 18.17 18.57L20.7464 21.1464C20.9417 21.3417 21.2583 21.3417 21.4536 21.1464L22.1464 20.4536C22.3417 20.2583 22.3417 19.9417 22.1464 19.7464L19.57 17.17ZM15.5 17C14.1 17 13 15.9 13 14.5C13 13.1 14.1 12 15.5 12C16.9 12 18 13.1 18 14.5C18 15.9 16.9 17 15.5 17ZM11.4999 19.9845C11.7755 20.0016 12 20.2239 12 20.5V21.5C12 21.7761 11.7759 22.0013 11.5001 21.9877C6.21203 21.7269 2 17.3524 2 12C2 6.48 6.48 2 12 2C16.6267 2 20.5133 5.14351 21.6592 9.4039C21.7413 9.70935 21.504 10 21.1877 10H20.1173C19.8893 10 19.6918 9.84521 19.6241 9.62746C19.2933 8.562 18.7428 7.57605 18.0066 6.73401C17.2754 5.89768 16.3791 5.22395 15.3756 4.75424C15.1983 4.67122 15 4.80418 15 5C15 6.1 14.1 7 13 7H11.5C11.2239 7 11 7.22386 11 7.5V9C11 9.55 10.55 10 10 10H8.5C8.22386 10 8 10.2239 8 10.5V11.5C8 11.7761 8.22386 12 8.5 12H9.5C9.77614 12 10 12.2239 10 12.5V14.5C10 14.7761 9.77614 15 9.5 15H9.20711C9.0745 15 8.94732 14.9473 8.85355 14.8536L4.85267 10.8527C4.57397 10.574 4.10136 10.7137 4.05443 11.1051C4.01933 11.3977 4 11.6952 4 12C4 16.2421 7.32179 19.7254 11.4999 19.9845Z" fill="#CF0B10"/>
</svg>
