<svg width="19" height="20" viewBox="0 0 19 20" fill="none" xmlns="http://www.w3.org/2000/svg">
<path fill-rule="evenodd" clip-rule="evenodd" d="M9.46884 6.51172C8.54367 6.51172 7.65639 6.87924 7.00219 7.53344C6.34799 8.18764 5.98047 9.07492 5.98047 10.0001C5.98047 10.9253 6.34799 11.8125 7.00219 12.4667C7.65639 13.1209 8.54367 13.4885 9.46884 13.4885C10.394 13.4885 11.2813 13.1209 11.9355 12.4667C12.5897 11.8125 12.9572 10.9253 12.9572 10.0001C12.9572 9.07492 12.5897 8.18764 11.9355 7.53344C11.2813 6.87924 10.394 6.51172 9.46884 6.51172ZM7.37582 10.0001C7.37582 9.44499 7.59633 8.91262 7.98885 8.5201C8.38137 8.12758 8.91374 7.90707 9.46884 7.90707C10.0239 7.90707 10.5563 8.12758 10.9488 8.5201C11.3413 8.91262 11.5619 9.44499 11.5619 10.0001C11.5619 10.5552 11.3413 11.0876 10.9488 11.4801C10.5563 11.8726 10.0239 12.0931 9.46884 12.0931C8.91374 12.0931 8.38137 11.8726 7.98885 11.4801C7.59633 11.0876 7.37582 10.5552 7.37582 10.0001Z" fill="#222222"/>
<path fill-rule="evenodd" clip-rule="evenodd" d="M9.4451 0C9.03115 0 8.68603 -1.73269e-08 8.40324 0.0186046C8.11414 0.0302478 7.82899 0.0899804 7.55952 0.195349C7.24906 0.323804 6.96694 0.512161 6.72928 0.749662C6.49162 0.987163 6.30307 1.26916 6.17441 1.57953C6.03952 1.90512 6.00324 2.2493 5.98836 2.62326C5.9867 2.75998 5.95042 2.89406 5.88291 3.01297C5.8154 3.13189 5.71887 3.23175 5.60231 3.30326C5.48215 3.36867 5.34736 3.40256 5.21055 3.40174C5.07374 3.40093 4.93936 3.36544 4.81999 3.2986C4.48882 3.12372 4.17255 2.98326 3.82278 2.93674C3.4897 2.89293 3.15126 2.91516 2.82677 3.00214C2.50229 3.08913 2.19811 3.23918 1.93161 3.44372C1.70593 3.62463 1.51196 3.84187 1.35766 4.08651C1.19952 4.32279 1.0265 4.6214 0.819987 4.97954L0.796731 5.02046C0.589289 5.3786 0.417196 5.67721 0.292545 5.93209C0.162312 6.19814 0.0599867 6.46047 0.0227774 6.7507C-0.0659665 7.42325 0.116061 8.10351 0.528824 8.64186C0.743708 8.92186 1.02371 9.12558 1.33999 9.32465C1.45779 9.3945 1.55593 9.49309 1.62524 9.61121C1.69455 9.72932 1.73275 9.8631 1.73627 10C1.73275 10.1369 1.69455 10.2707 1.62524 10.3888C1.55593 10.5069 1.45779 10.6055 1.33999 10.6753C1.02371 10.8744 0.744638 11.0781 0.528824 11.3581C0.324281 11.6246 0.174233 11.9288 0.0872454 12.2533C0.000258081 12.5778 -0.0219642 12.9162 0.0218473 13.2493C0.0599868 13.5395 0.161382 13.8019 0.291615 14.0679C0.417196 14.3228 0.589289 14.6214 0.796731 14.9795L0.819987 15.0205C1.0265 15.3786 1.19952 15.6772 1.35766 15.9135C1.52231 16.1581 1.69906 16.3786 1.93161 16.5553C2.19804 16.7601 2.50219 16.9103 2.82667 16.9974C3.15116 17.0846 3.48964 17.1069 3.82278 17.0633C4.17255 17.0167 4.48882 16.8772 4.81999 16.7014C4.93925 16.6347 5.07345 16.5993 5.21009 16.5985C5.34672 16.5977 5.48133 16.6315 5.60138 16.6967C5.71888 16.7674 5.81627 16.867 5.8842 16.9861C5.95212 17.1051 5.98831 17.2397 5.98929 17.3767C6.00324 17.7507 6.03952 18.0949 6.17534 18.4205C6.30379 18.7309 6.49215 19.0131 6.72965 19.2507C6.96715 19.4884 7.24914 19.6769 7.55952 19.8056C7.82929 19.9172 8.10836 19.9609 8.40324 19.9805C8.68603 20 9.03115 20 9.4451 20H9.49161C9.90557 20 10.2507 20 10.5335 19.9814C10.8293 19.9609 11.1074 19.9172 11.3772 19.8047C11.6877 19.6762 11.9698 19.4878 12.2074 19.2503C12.4451 19.0128 12.6336 18.7308 12.7623 18.4205C12.8972 18.0949 12.9335 17.7507 12.9484 17.3767C12.9499 17.2399 12.9861 17.1056 13.0536 16.9865C13.1211 16.8674 13.2177 16.7674 13.3344 16.6958C13.4546 16.6305 13.5895 16.5968 13.7263 16.5978C13.8631 16.5988 13.9974 16.6344 14.1167 16.7014C14.4479 16.8763 14.7642 17.0167 15.1139 17.0623C15.7865 17.1511 16.4667 16.969 17.0051 16.5563C17.2377 16.3777 17.4144 16.1581 17.5791 15.9135C17.7372 15.6772 17.9102 15.3786 18.1167 15.0205L18.14 14.9795C18.3474 14.6214 18.5195 14.3228 18.6442 14.0679C18.7744 13.8019 18.8767 13.5386 18.9139 13.2493C19.0027 12.5768 18.8207 11.8965 18.4079 11.3581C18.193 11.0781 17.913 10.8744 17.5967 10.6753C17.4789 10.6055 17.3808 10.5069 17.3115 10.3888C17.2422 10.2707 17.204 10.1369 17.2005 10C17.2005 9.7414 17.3418 9.48465 17.5967 9.32465C17.913 9.12558 18.1921 8.92186 18.4079 8.64186C18.6124 8.37536 18.7625 8.07119 18.8495 7.7467C18.9365 7.42222 18.9587 7.08377 18.9149 6.7507C18.871 6.46474 18.7799 6.18809 18.6451 5.93209C18.4862 5.62305 18.3178 5.31903 18.14 5.02046L18.1167 4.97954C17.9468 4.67635 17.7675 4.37853 17.5791 4.08651C17.4247 3.8422 17.2307 3.62528 17.0051 3.44465C16.7387 3.23995 16.4345 3.08973 16.11 3.00258C15.7856 2.91543 15.4471 2.89306 15.1139 2.93674C14.7642 2.98326 14.4479 3.12279 14.1167 3.2986C13.9975 3.36528 13.8633 3.40067 13.7266 3.40149C13.59 3.4023 13.4554 3.36851 13.3353 3.30326C13.2184 3.23198 13.1215 3.13221 13.0537 3.01328C12.9858 2.89435 12.9493 2.76016 12.9474 2.62326C12.9335 2.2493 12.8972 1.90512 12.7614 1.57953C12.6329 1.26907 12.4446 0.98695 12.2071 0.74929C11.9696 0.511629 11.6876 0.323083 11.3772 0.194419C11.1074 0.0827907 10.8284 0.0390698 10.5335 0.0195349C10.2507 2.59904e-08 9.90557 0 9.49161 0H9.4451ZM8.09348 1.48372C8.1651 1.45395 8.27394 1.42698 8.49813 1.41116C8.72789 1.39535 9.02557 1.39535 9.46836 1.39535C9.91115 1.39535 10.2088 1.39535 10.4386 1.41116C10.6628 1.42698 10.7716 1.45395 10.8432 1.48372C11.1288 1.60186 11.3549 1.82791 11.473 2.11349C11.5102 2.20279 11.5409 2.34326 11.553 2.67535C11.5809 3.41209 11.9614 4.12186 12.6367 4.51163C13.3121 4.9014 14.1167 4.87628 14.7688 4.53209C15.0628 4.37674 15.1995 4.33302 15.2963 4.32093C15.6019 4.28054 15.9111 4.36319 16.1558 4.5507C16.2172 4.59814 16.2953 4.67907 16.4209 4.86512C16.5502 5.05674 16.6991 5.31442 16.9205 5.69767C17.1418 6.08093 17.2898 6.33953 17.3911 6.54605C17.4907 6.74791 17.5214 6.85581 17.5307 6.93302C17.5711 7.23867 17.4884 7.54784 17.3009 7.79256C17.2414 7.86977 17.1353 7.96651 16.8544 8.14326C16.2293 8.53581 15.8051 9.22047 15.8051 10C15.8051 10.7795 16.2293 11.4642 16.8544 11.8567C17.1353 12.0335 17.2414 12.1302 17.3009 12.2074C17.4888 12.4521 17.5707 12.7609 17.5307 13.067C17.5214 13.1442 17.4898 13.253 17.3911 13.454C17.2898 13.6614 17.1418 13.9191 16.9205 14.3023C16.6991 14.6856 16.5493 14.9433 16.4209 15.1349C16.2953 15.3209 16.2172 15.4019 16.1558 15.4493C15.9111 15.6368 15.6019 15.7195 15.2963 15.6791C15.1995 15.667 15.0637 15.6233 14.7688 15.4679C14.1177 15.1237 13.3121 15.0977 12.6367 15.4874C11.9614 15.8772 11.5809 16.5879 11.553 17.3247C11.5409 17.6567 11.5102 17.7972 11.473 17.8865C11.4146 18.0277 11.3289 18.156 11.2208 18.2641C11.1128 18.3721 10.9844 18.4578 10.8432 18.5163C10.7716 18.546 10.6628 18.573 10.4386 18.5888C10.2088 18.6047 9.91115 18.6047 9.46836 18.6047C9.02557 18.6047 8.72789 18.6047 8.49813 18.5888C8.27394 18.573 8.1651 18.546 8.09348 18.5163C7.95227 18.4578 7.82397 18.3721 7.71591 18.2641C7.60785 18.156 7.52215 18.0277 7.46371 17.8865C7.4265 17.7972 7.3958 17.6567 7.38371 17.3247C7.3558 16.5879 6.97534 15.8781 6.29999 15.4884C5.62464 15.0986 4.81999 15.1237 4.16789 15.4679C3.87394 15.6233 3.7372 15.667 3.64045 15.6791C3.33481 15.7195 3.02564 15.6368 2.78092 15.4493C2.71952 15.4019 2.64138 15.3209 2.5158 15.1349C2.34081 14.8625 2.17422 14.5849 2.01627 14.3023C1.79487 13.9191 1.64696 13.6605 1.54557 13.454C1.44603 13.2521 1.41534 13.1442 1.40603 13.067C1.36565 12.7613 1.44829 12.4522 1.6358 12.2074C1.69534 12.1302 1.80138 12.0335 2.08231 11.8567C2.70743 11.4642 3.13161 10.7795 3.13161 10C3.13161 9.22047 2.70743 8.53581 2.08231 8.14326C1.80138 7.96651 1.69534 7.86977 1.6358 7.79256C1.44829 7.54784 1.36565 7.23867 1.40603 6.93302C1.41534 6.85581 1.44696 6.74698 1.54557 6.54605C1.64696 6.3386 1.79487 6.08093 2.01627 5.69767C2.23766 5.31442 2.38743 5.05674 2.5158 4.86512C2.64138 4.67907 2.71952 4.59814 2.78092 4.5507C3.02564 4.36319 3.33481 4.28054 3.64045 4.32093C3.7372 4.33302 3.87301 4.37674 4.16789 4.53209C4.81906 4.87628 5.62464 4.90233 6.29999 4.51163C6.97534 4.12186 7.3558 3.41209 7.38371 2.67535C7.3958 2.34326 7.4265 2.20279 7.46371 2.11349C7.58185 1.82791 7.80789 1.60186 8.09348 1.48372Z" fill="#222222"/>
</svg>
