<svg width="20" height="22" viewBox="0 0 20 22" fill="none" xmlns="http://www.w3.org/2000/svg">
<path fill-rule="evenodd" clip-rule="evenodd" d="M8.694 0H10.806C12.644 0 14.1 0 15.239 0.153C16.411 0.311 17.36 0.643 18.109 1.391C18.857 2.14 19.189 3.089 19.347 4.261C19.5 5.401 19.5 6.856 19.5 8.694V12.806C19.5 14.644 19.5 16.1 19.347 17.239C19.189 18.411 18.857 19.36 18.109 20.109C17.36 20.857 16.411 21.189 15.239 21.347C14.099 21.5 12.644 21.5 10.806 21.5H8.694C6.856 21.5 5.4 21.5 4.261 21.347C3.089 21.189 2.14 20.857 1.391 20.109C0.643 19.36 0.311 18.411 0.153 17.239C1.19209e-07 16.099 0 14.644 0 12.806V8.694C0 6.856 1.19209e-07 5.4 0.153 4.261C0.311 3.089 0.643 2.14 1.391 1.391C2.14 0.643 3.089 0.311 4.261 0.153C5.401 0 6.856 0 8.694 0ZM4.46 1.64C3.454 1.775 2.874 2.029 2.45 2.452C2.028 2.875 1.774 3.455 1.639 4.461C1.501 5.489 1.499 6.843 1.499 8.75V12.75C1.499 14.657 1.501 16.012 1.639 17.04C1.774 18.045 2.028 18.625 2.451 19.048C2.874 19.471 3.454 19.725 4.46 19.86C5.488 19.998 6.842 20 8.749 20H10.749C12.656 20 14.011 19.998 15.039 19.86C16.044 19.725 16.624 19.471 17.047 19.048C17.47 18.625 17.724 18.045 17.859 17.039C17.997 16.012 17.999 14.657 17.999 12.75V8.75C17.999 6.843 17.997 5.489 17.859 4.46C17.724 3.455 17.47 2.875 17.047 2.452C16.624 2.029 16.044 1.775 15.038 1.64C14.011 1.502 12.656 1.5 10.749 1.5H8.749C6.842 1.5 5.489 1.502 4.46 1.64ZM5 6.75C5 6.55109 5.07902 6.36032 5.21967 6.21967C5.36032 6.07902 5.55109 6 5.75 6H13.75C13.9489 6 14.1397 6.07902 14.2803 6.21967C14.421 6.36032 14.5 6.55109 14.5 6.75C14.5 6.94891 14.421 7.13968 14.2803 7.28033C14.1397 7.42098 13.9489 7.5 13.75 7.5H5.75C5.55109 7.5 5.36032 7.42098 5.21967 7.28033C5.07902 7.13968 5 6.94891 5 6.75ZM5 10.75C5 10.5511 5.07902 10.3603 5.21967 10.2197C5.36032 10.079 5.55109 10 5.75 10H13.75C13.9489 10 14.1397 10.079 14.2803 10.2197C14.421 10.3603 14.5 10.5511 14.5 10.75C14.5 10.9489 14.421 11.1397 14.2803 11.2803C14.1397 11.421 13.9489 11.5 13.75 11.5H5.75C5.55109 11.5 5.36032 11.421 5.21967 11.2803C5.07902 11.1397 5 10.9489 5 10.75ZM5 14.75C5 14.5511 5.07902 14.3603 5.21967 14.2197C5.36032 14.079 5.55109 14 5.75 14H10.75C10.9489 14 11.1397 14.079 11.2803 14.2197C11.421 14.3603 11.5 14.5511 11.5 14.75C11.5 14.9489 11.421 15.1397 11.2803 15.2803C11.1397 15.421 10.9489 15.5 10.75 15.5H5.75C5.55109 15.5 5.36032 15.421 5.21967 15.2803C5.07902 15.1397 5 14.9489 5 14.75Z" fill="#444444"/>
</svg>
