<svg width="19" height="19" viewBox="0 0 19 19" fill="none" xmlns="http://www.w3.org/2000/svg">
<path d="M2.32571 8.44074C2.32536 9.70521 2.65575 10.9399 3.28399 12.0281L2.26562 15.7464L6.07076 14.7486C7.12322 15.3216 8.30241 15.6218 9.50071 15.6219H9.50386C13.4597 15.6219 16.6798 12.4029 16.6815 8.4464C16.6822 6.52919 15.9363 4.72637 14.581 3.37002C13.2259 2.0138 11.4238 1.2665 9.50357 1.26562C5.54729 1.26562 2.3274 4.48441 2.32577 8.44074" fill="#4FCE5D"/>
<path d="M2.06242 8.43248C2.06201 9.74245 2.40424 11.0213 3.05488 12.1485L2 16L5.94158 14.9665C7.02761 15.5587 8.25037 15.8709 9.4946 15.8713H9.49781C13.5955 15.8713 16.9313 12.5366 16.9331 8.43843C16.9338 6.45233 16.161 4.5847 14.7573 3.17976C13.3534 1.775 11.4868 1.00082 9.49781 1C5.39938 1 2.06405 4.33428 2.06242 8.43248ZM4.40977 11.9544L4.2626 11.7207C3.64392 10.737 3.31738 9.60024 3.31785 8.43295C3.31913 5.02663 6.09132 2.25531 9.50014 2.25531C11.151 2.25601 12.7024 2.89954 13.8692 4.06712C15.0361 5.23482 15.6781 6.78704 15.6777 8.43796C15.6762 11.8443 12.904 14.6159 9.49781 14.6159H9.49536C8.38629 14.6154 7.29856 14.3175 6.34996 13.7547L6.12422 13.6208L3.7852 14.234L4.40977 11.9544Z" fill="#FFFFFF"/>
<path d="M7.64238 5.32923C7.50319 5.0199 7.35672 5.01365 7.22437 5.00823C7.11598 5.00356 6.99209 5.00391 6.8683 5.00391C6.74441 5.00391 6.5431 5.05052 6.37295 5.23631C6.20262 5.42227 5.72266 5.87166 5.72266 6.78568C5.72266 7.69969 6.3884 8.58307 6.48121 8.70714C6.57413 8.83098 7.76645 10.7667 9.65478 11.5114C11.2242 12.1302 11.5435 12.0071 11.8841 11.9761C12.2248 11.9452 12.9833 11.5268 13.1381 11.093C13.293 10.6592 13.293 10.2874 13.2465 10.2097C13.2001 10.1323 13.0762 10.0858 12.8904 9.99296C12.7046 9.9001 11.7912 9.45059 11.6209 9.38858C11.4506 9.32663 11.3268 9.29572 11.2029 9.48174C11.079 9.66747 10.7232 10.0858 10.6148 10.2097C10.5064 10.3339 10.398 10.3494 10.2123 10.2565C10.0264 10.1632 9.42805 9.9673 8.7182 9.33445C8.16591 8.84201 7.79305 8.23389 7.68467 8.04787C7.57628 7.86214 7.67306 7.76146 7.76622 7.66889C7.84969 7.58565 7.95206 7.45195 8.04504 7.34351C8.13768 7.23501 8.16859 7.1576 8.23054 7.0337C8.29255 6.90969 8.26152 6.80119 8.21514 6.70827C8.16591 6.61534 7.80757 5.69655 7.64238 5.32923Z" fill="#FFFFFF"/>
</svg>
