<svg width="24" height="24" viewBox="0 0 24 24" fill="none" xmlns="http://www.w3.org/2000/svg">
<g clip-path="url(#clip0_1_14601)">
<path d="M5.5148 9.96992L3.08993 11.3699C2.95212 11.4495 2.85156 11.5805 2.81037 11.7342C2.76919 11.888 2.79075 12.0517 2.87031 12.1895L7.27031 19.8106C7.30971 19.8788 7.36216 19.9386 7.42467 19.9866C7.48718 20.0345 7.55853 20.0697 7.63464 20.0901C7.71075 20.1105 7.79012 20.1157 7.86824 20.1054C7.94636 20.0951 8.02169 20.0696 8.08993 20.0302L10.5148 18.6302C10.583 18.5908 10.6428 18.5383 10.6908 18.4758C10.7388 18.4133 10.774 18.342 10.7944 18.2659C10.8147 18.1897 10.8199 18.1104 10.8097 18.0322C10.7994 17.9541 10.7738 17.8788 10.7344 17.8106L6.33441 10.1895C6.25485 10.0517 6.1238 9.95117 5.97009 9.90998C5.81638 9.8688 5.65261 9.89036 5.5148 9.96992ZM15.9071 3.96992L13.4822 5.36992C13.3444 5.44949 13.2439 5.58054 13.2027 5.73425C13.1615 5.88795 13.1831 6.05173 13.2626 6.18954L17.6626 13.8106C17.702 13.8788 17.7545 13.9386 17.817 13.9866C17.8795 14.0345 17.9508 14.0697 18.0269 14.0901C18.103 14.1105 18.1824 14.1157 18.2605 14.1054C18.3387 14.0951 18.414 14.0696 18.4822 14.0302L20.9071 12.6302C20.9753 12.5908 21.0352 12.5383 21.0831 12.4758C21.1311 12.4133 21.1663 12.342 21.1867 12.2659C21.2071 12.1897 21.2123 12.1104 21.202 12.0322C21.1917 11.9541 21.1661 11.8788 21.1267 11.8106L16.7267 4.18954C16.6472 4.05173 16.5161 3.95117 16.3624 3.90998C16.2087 3.8688 16.0449 3.89036 15.9071 3.96992Z" fill="#CF0B10" stroke="#CF0B10" stroke-width="1.2" stroke-linecap="round" stroke-linejoin="round"/>
<path d="M3.67266 19.5789L1.27266 15.422C1.19309 15.2841 1.17153 15.1204 1.21272 14.9667C1.2539 14.813 1.35446 14.6819 1.49227 14.6023L3.05112 13.7023C3.18893 13.6228 3.3527 13.6012 3.50641 13.6424C3.66012 13.6836 3.79117 13.7841 3.87073 13.922L6.27073 18.0789C6.3503 18.2167 6.37186 18.3805 6.33067 18.5342C6.28949 18.6879 6.18893 18.8189 6.05112 18.8985L4.49227 19.7985C4.35446 19.8781 4.19069 19.8996 4.03698 19.8584C3.88327 19.8173 3.75222 19.7167 3.67266 19.5789ZM22.7252 8.57888L20.3252 4.42196C20.2457 4.28415 20.1146 4.18359 19.9609 4.1424C19.8072 4.10122 19.6434 4.12278 19.5056 4.20234L17.9468 5.10234C17.8089 5.18191 17.7084 5.31296 17.6672 5.46667C17.626 5.62038 17.6476 5.78415 17.7271 5.92196L20.1271 10.0789C20.2067 10.2167 20.3378 10.3173 20.4915 10.3584C20.6452 10.3996 20.8089 10.3781 20.9468 10.2985L22.5056 9.3985C22.6434 9.31893 22.744 9.18788 22.7852 9.03417C22.8263 8.88046 22.8048 8.71669 22.7252 8.57888ZM8.53483 14.0004L15.463 10.0004L8.53483 14.0004Z" fill="#CF0B10"/>
<path d="M8.53483 14.0004L15.463 10.0004M3.67266 19.5789L1.27266 15.422C1.19309 15.2841 1.17153 15.1204 1.21272 14.9667C1.2539 14.813 1.35446 14.6819 1.49227 14.6023L3.05112 13.7023C3.18893 13.6228 3.3527 13.6012 3.50641 13.6424C3.66012 13.6836 3.79117 13.7841 3.87073 13.922L6.27073 18.0789C6.3503 18.2167 6.37186 18.3805 6.33067 18.5342C6.28949 18.6879 6.18893 18.8189 6.05112 18.8985L4.49227 19.7985C4.35446 19.8781 4.19069 19.8996 4.03698 19.8584C3.88327 19.8173 3.75222 19.7167 3.67266 19.5789ZM22.7252 8.57888L20.3252 4.42196C20.2457 4.28415 20.1146 4.18359 19.9609 4.1424C19.8072 4.10122 19.6434 4.12278 19.5056 4.20234L17.9468 5.10234C17.8089 5.18191 17.7084 5.31296 17.6672 5.46667C17.626 5.62038 17.6476 5.78415 17.7271 5.92196L20.1271 10.0789C20.2067 10.2167 20.3378 10.3173 20.4915 10.3584C20.6452 10.3996 20.8089 10.3781 20.9468 10.2985L22.5056 9.3985C22.6434 9.31893 22.744 9.18788 22.7852 9.03417C22.8263 8.88046 22.8048 8.71669 22.7252 8.57888Z" stroke="#CF0B10" stroke-width="1.2" stroke-linecap="round" stroke-linejoin="round"/>
</g>
<defs>
<clipPath id="clip0_1_14601">
<rect width="24" height="24" fill="white"/>
</clipPath>
</defs>
</svg>
