<svg width="20" height="20" viewBox="0 0 20 20" fill="none" xmlns="http://www.w3.org/2000/svg">
<path d="M12.9246 9.1463L8.72705 6.84958C8.48569 6.71752 8.20042 6.72245 7.96384 6.86263C7.72713 7.00295 7.58594 7.25083 7.58594 7.52596V12.08C7.58594 12.3538 7.72626 12.6012 7.96138 12.7417C8.08416 12.8151 8.22028 12.8519 8.35668 12.8519C8.48164 12.8519 8.60688 12.821 8.72212 12.759L12.9198 10.5018C13.169 10.3677 13.3246 10.1087 13.3257 9.82558C13.3267 9.54248 13.1731 9.28227 12.9246 9.1463ZM8.69936 11.5071V8.10347L11.8366 9.82007L8.69936 11.5071Z" fill="#CF0B10" stroke="#CF0B10" stroke-width="0.095"/>
<path d="M19.3603 6.1973L19.3594 6.18861C19.3433 6.03568 19.1831 4.67538 18.5218 3.9835C17.7575 3.1697 16.8909 3.07084 16.4741 3.02344C16.4396 3.01952 16.408 3.0159 16.3798 3.01213L16.3466 3.00865C13.8347 2.826 10.0413 2.80107 10.0033 2.80093L10 2.80078L9.99667 2.80093C9.95869 2.80107 6.16527 2.826 3.63081 3.00865L3.59733 3.01213C3.57037 3.01575 3.54065 3.01909 3.50832 3.02286C3.09635 3.0704 2.23907 3.16941 1.47253 4.01263C0.842682 4.69713 0.660614 6.02828 0.641914 6.17788L0.63974 6.1973C0.634087 6.26094 0.5 7.7759 0.5 9.29681V10.7186C0.5 12.2395 0.634087 13.7544 0.63974 13.8182L0.640755 13.8278C0.656845 13.9782 0.816879 15.3136 1.47514 16.0058C2.19384 16.7923 3.10258 16.8964 3.59138 16.9524C3.66865 16.9612 3.73518 16.9687 3.78056 16.9767L3.82448 16.9828C5.27479 17.1208 9.82199 17.1888 10.0148 17.1915L10.0206 17.1917L10.0264 17.1915C10.0644 17.1914 13.8576 17.1665 16.3695 16.9838L16.4027 16.9803C16.4344 16.9761 16.4701 16.9724 16.5092 16.9683C16.9189 16.9248 17.7715 16.8345 18.5275 16.0027C19.1573 15.3181 19.3395 13.9869 19.3581 13.8375L19.3603 13.8181C19.3659 13.7543 19.5001 12.2395 19.5001 10.7186V9.29681C19.5 7.7759 19.3659 6.26109 19.3603 6.1973ZM18.3866 10.7186C18.3866 12.1263 18.2636 13.576 18.2521 13.7091C18.2048 14.0757 18.0127 14.9179 17.7058 15.2514C17.2327 15.772 16.7467 15.8236 16.3918 15.8611C16.3489 15.8656 16.3092 15.8699 16.2732 15.8744C13.8437 16.0501 10.1935 16.0771 10.0254 16.0781C9.83678 16.0754 5.35611 16.0068 3.95001 15.8762C3.87797 15.8644 3.80013 15.8555 3.71808 15.8462C3.3019 15.7985 2.73222 15.7333 2.29415 15.2514L2.28386 15.2404C1.98235 14.9263 1.79578 14.1387 1.74838 13.7134C1.73954 13.6128 1.61343 12.146 1.61343 10.7186V9.29681C1.61343 7.89071 1.73606 6.44257 1.74795 6.30675C1.80434 5.87492 2.00003 5.08373 2.29415 4.76395C2.78179 4.22761 3.29596 4.16817 3.63603 4.12889C3.6685 4.12512 3.6988 4.12164 3.72678 4.11802C6.19165 3.94146 9.86809 3.91522 10 3.91421C10.1319 3.91508 13.807 3.94146 16.25 4.11802C16.28 4.12179 16.3128 4.12556 16.348 4.12962C16.6978 4.16948 17.2265 4.22978 17.7116 4.74728L17.7161 4.75207C18.0177 5.06619 18.2042 5.86752 18.2516 6.30138C18.26 6.39633 18.3866 7.86636 18.3866 9.29681V10.7186Z" fill="#CF0B10" stroke="#CF0B10" stroke-width="0.095"/>
</svg>
